<svg width="300" height="300" xmlns="http://www.w3.org/2000/svg" zoomAndPan="magnify" preserveAspectRatio="xMidYMid meet" version="1.0">
 <defs>
  <g id="svg_1"/>
  <radialGradient gradientTransform="translate(0,0) scale(-0.73,1)" r="1.3674" cy="0" cx="0" spreadMethod="pad" id="svg_58">
   <stop offset="0" stop-opacity="0.99219" stop-color="#000000"/>
   <stop offset="1" stop-opacity="0.98438" stop-color="#212121"/>
  </radialGradient>
 </defs>
 <g>
  <title>Layer 1</title>
  <g id="svg_70">
   <g fill="#100f0f" id="svg_38">
    <g id="svg_39">
     <g id="svg_40"/>
    </g>
   </g>
   <g id="svg_57">
    <g fill="#100f0f" id="svg_2">
     <g id="svg_3">
      <g id="svg_4">
       <path d="m62.56325,83.93207c2.62515,0 3.93948,1.076 3.93948,3.22449c0,0.67294 -0.1402,1.51411 -0.42059,2.52351l-1.7244,5.80408c-0.53274,1.77697 -1.18466,3.02472 -1.94872,3.74322c-0.75705,0.72201 -1.85758,1.0795 -3.29458,1.0795c-1.19867,0 -2.11695,-0.31193 -2.76185,-0.9393c-0.6449,-0.62387 -1.25825,-1.60523 -1.83655,-2.9441l-1.2197,-2.9441c-0.38554,-0.90426 -0.7921,-1.52813 -1.21969,-1.8646c-0.4311,-0.33647 -1.10404,-0.5047 -2.01881,-0.5047l-1.64029,0l-9.1267,32.09068c-0.1402,0.62737 -0.2103,1.17764 -0.2103,1.6543c0,0.58181 0.08412,1.06198 0.25235,1.44401c0.16823,0.38554 0.42059,0.79211 0.75705,1.2197c0.42759,0.67294 0.6449,1.22671 0.6449,1.6543c0,0.09463 -0.05257,0.33296 -0.15421,0.71499c-0.23483,0.61686 -0.70098,1.0725 -1.40195,1.3599c-0.69397,0.29091 -1.68234,0.4346 -2.97214,0.4346l-16.8795,0c-1.0024,0 -1.77697,-0.16823 -2.32724,-0.5047c-0.55377,-0.33647 -0.82716,-0.81313 -0.82716,-1.42999c0,-0.2874 0.0701,-0.5783 0.2103,-0.86921c0.19627,-0.42759 0.42408,-0.75004 0.68695,-0.96734c0.25936,-0.2138 0.65191,-0.49069 1.17764,-0.82716c0.7185,-0.42759 1.31783,-0.90426 1.7945,-1.42999c0.48367,-0.53274 0.89725,-1.34937 1.23372,-2.45341l9.04259,-32.09068l-1.6543,0c-1.05848,0 -1.92068,0.16823 -2.59362,0.5047c-0.66593,0.33647 -1.38092,0.96034 -2.14498,1.8646l-2.3693,2.9441c-1.10404,1.2898 -2.16952,2.26415 -3.19645,2.91606c-1.03044,0.6449 -2.14148,0.96734 -3.33665,0.96734c-1.10404,0 -1.96974,-0.28389 -2.59361,-0.85519c-0.61686,-0.5783 -0.92529,-1.37391 -0.92529,-2.38332c0,-0.47666 0.07009,-1.0024 0.21029,-1.58421l1.87862,-6.5331c0.37151,-1.33536 0.79912,-2.34826 1.27578,-3.04223c0.48367,-0.70098 1.16712,-1.20568 2.04685,-1.51411c0.88673,-0.30843 2.14849,-0.46265 3.78527,-0.46265l41.86228,0l0.00001,0.00001zm0,0" id="svg_5" fill="url(#svg_58)"/>
      </g>
     </g>
    </g>
    <g fill="#100f0f" id="svg_6">
     <g id="svg_7">
      <g id="svg_8">
       <path d="m114.39229,98.51237c-0.76757,2.77586 -2.20107,4.94539 -4.304,6.50506c-2.10293,1.55266 -4.76313,2.51651 -7.9771,2.88802c2.2992,0.19627 4.0236,0.86921 5.1732,2.01881c1.1496,1.1496 1.72441,2.66021 1.72441,4.52831c0,0.71149 -0.12267,1.59472 -0.36451,2.64968l-0.78509,3.5189c-0.09463,0.47666 -0.1402,0.81313 -0.1402,1.00941c0,0.61686 0.1402,1.08651 0.42059,1.40195c0.2874,0.30843 0.70098,0.46264 1.23372,0.46264c0.99889,0 1.7279,0.14721 2.18704,0.43461c0.45563,0.28039 0.60984,0.80612 0.46264,1.57019c-0.18927,1.10404 -0.76406,2.18354 -1.7244,3.2385c-0.95333,1.05848 -2.30622,1.93119 -4.05164,2.62165c-1.74894,0.69046 -3.86588,1.03744 -6.35084,1.03744c-3.1614,0 -5.6744,-0.70448 -7.5425,-2.11695c-1.87161,-1.40896 -2.8039,-3.43478 -2.8039,-6.07045c0,-0.99889 0.14369,-2.07489 0.4346,-3.22449l1.1496,-4.5984c0.18576,-0.62387 0.28039,-1.26876 0.28039,-1.93469c0,-1.10053 -0.37502,-1.89264 -1.12156,-2.3693c-0.73953,-0.48367 -1.92067,-0.72901 -3.54693,-0.72901l-2.71979,0l-3.30861,11.93061c-0.09463,0.28039 -0.1402,0.63789 -0.1402,1.06548c0,0.67294 0.16122,1.25475 0.49068,1.73842c0.33647,0.47666 0.7921,0.97786 1.37391,1.50008c0.42759,0.33647 0.76056,0.65892 0.99539,0.96735c0.24184,0.30843 0.36451,0.63087 0.36451,0.96734c0,0.81313 -0.38554,1.38794 -1.1496,1.72441c-0.76757,0.33647 -1.88913,0.5047 -3.36468,0.5047l-18.0291,0c-1.24423,0 -2.17303,-0.22431 -2.78989,-0.67294c-0.62387,-0.45563 -0.84468,-1.09352 -0.65892,-1.90665c0.09463,-0.42759 0.27689,-0.77458 0.54677,-1.03744c0.26287,-0.26987 0.65541,-0.5748 1.17764,-0.91127c0.81313,-0.47666 1.45803,-0.97435 1.93469,-1.50008c0.48367,-0.53274 0.86921,-1.34587 1.1496,-2.4394l8.7622,-30.95509c0.19627,-0.62387 0.29441,-1.2232 0.29441,-1.7945c0,-0.52223 -0.08412,-0.96033 -0.25235,-1.31783c-0.16823,-0.36451 -0.39955,-0.78509 -0.68695,-1.26176c-0.4311,-0.62387 -0.6449,-1.12857 -0.6449,-1.51411c0,-0.1402 0.04556,-0.39955 0.1402,-0.78509c0.19627,-0.62387 0.61686,-1.06899 1.26176,-1.33186c0.6449,-0.25936 1.63327,-0.39255 2.97214,-0.39255l24.05749,0c3.30861,0 6.18961,0.5047 8.65004,1.51411c2.46744,1.0024 4.36007,2.37631 5.67791,4.12174c1.31783,1.74894 1.97675,3.72218 1.97675,5.91624c0,1.00941 -0.1472,2.01881 -0.4346,3.02822l-0.00002,-0.00001zm-18.37959,-0.72901c0.24184,-1.10053 0.36451,-1.93819 0.36451,-2.50949c0,-2.53052 -1.38793,-3.79929 -4.16379,-3.79929l-3.02822,0l-3.1544,12.70168l3.0142,0c1.8681,0 3.34014,-0.45212 4.41614,-1.35989c1.07249,-0.90426 1.92418,-2.5831 2.55155,-5.03301l0.00001,0zm0,0" id="svg_9" fill="url(#svg_58)"/>
      </g>
     </g>
    </g>
    <g fill="#100f0f" id="svg_10">
     <g id="svg_11">
      <g id="svg_12">
       <path d="m145.90704,83.93207c1.00941,0 1.78749,0.15422 2.34126,0.46265c0.55026,0.30843 0.82715,0.75355 0.82715,1.33185c0,0.23483 -0.07711,0.54326 -0.22431,0.92529c-0.1402,0.33647 -0.34698,0.6414 -0.61686,0.91127c-0.26287,0.26287 -0.50119,0.45563 -0.71499,0.5748c-0.2173,0.11216 -0.37152,0.2173 -0.46265,0.30843c-0.76757,0.44162 -1.38793,0.92179 -1.86459,1.44401c-0.47666,0.52573 -0.88323,1.33887 -1.2197,2.4394l-8.6921,30.95509c-0.18927,0.61686 -0.28039,1.21619 -0.28039,1.7945c0,0.5713 0.07711,1.04796 0.23834,1.42999c0.16823,0.38554 0.42059,0.7921 0.75705,1.21969c0.42759,0.62737 0.6449,1.13208 0.6449,1.51411c0,0.09463 -0.04907,0.33297 -0.1402,0.715c-0.18927,0.67294 -0.61686,1.14259 -1.2898,1.40195c-0.67294,0.26287 -1.67884,0.39255 -3.0142,0.39255l-16.8795,0c-1.0024,0 -1.77347,-0.16823 -2.32724,-0.5047c-0.55026,-0.33647 -0.82716,-0.7886 -0.82716,-1.3599c0,-0.2874 0.0701,-0.60283 0.2103,-0.9393c0.19627,-0.52223 0.51171,-0.9288 0.9393,-1.2197c0.4311,-0.2874 0.69397,-0.45563 0.7851,-0.5047c0.76406,-0.47666 1.38793,-0.96033 1.86459,-1.45803c0.48367,-0.5047 0.89024,-1.33185 1.2197,-2.48145l8.76219,-30.95509c0.19627,-0.62387 0.29441,-1.2232 0.29441,-1.7945c0,-0.52223 -0.08412,-0.96033 -0.25235,-1.31783c-0.16823,-0.36451 -0.39956,-0.78509 -0.68696,-1.26176c-0.4311,-0.62387 -0.6449,-1.12857 -0.6449,-1.51411c0,-0.1402 0.04556,-0.39955 0.1402,-0.78509c0.19627,-0.62387 0.61686,-1.06899 1.26176,-1.33186c0.6449,-0.25936 1.63327,-0.39255 2.97214,-0.39255l16.8795,0l0.00001,-0.00001zm0,0" id="svg_13" fill="url(#svg_58)"/>
      </g>
     </g>
    </g>
    <g fill="#100f0f" id="svg_14">
     <g id="svg_15">
      <g id="svg_16">
       <path d="m204.14311,90.81566c0,1.73141 -0.37502,3.21748 -1.12156,4.45821c-0.73953,1.24423 -1.68234,2.18704 -2.83194,2.83194c-1.1496,0.6449 -2.2992,0.96734 -3.4488,0.96734c-1.1496,0 -2.19406,-0.23833 -3.12636,-0.71499c-0.92529,-0.47666 -1.70337,-1.12156 -2.32724,-1.93469l-17.30008,29.1606c-1.30031,2.19756 -2.50248,3.77826 -3.60301,4.7386c-1.09352,0.95333 -2.33776,1.42999 -3.72919,1.42999c-1.48607,0 -2.67422,-0.49069 -3.56096,-1.47205c-0.87973,-0.98137 -1.51061,-2.54454 -1.89264,-4.69653l-6.02839,-33.1842c-0.15071,-0.85869 -0.41708,-1.54915 -0.79911,-2.07489c-0.38554,-0.53274 -0.88323,-1.10754 -1.50009,-1.7244c-0.48718,-0.42759 -0.82365,-0.77458 -1.00941,-1.03744c-0.18927,-0.26987 -0.28039,-0.59583 -0.28039,-0.98137c-0.24534,-1.76646 0.80612,-2.64969 3.1544,-2.64969l17.94498,0c1.10053,0 1.93819,0.23133 2.50949,0.68696c0.5783,0.44862 0.84468,1.05848 0.79912,1.82254c0,0.4311 -0.08412,0.7921 -0.25235,1.0795c-0.16823,0.29091 -0.44513,0.65191 -0.82716,1.07951c-0.4311,0.47666 -0.76757,0.9323 -1.00941,1.35989c-0.23483,0.4311 -0.35048,0.96034 -0.35048,1.58421c0,0.28039 0.02102,0.51872 0.07009,0.71499l2.73381,16.72529l9.54729,-16.93558c1.67183,-3.06326 3.32263,-5.23278 4.94889,-6.50506c1.62626,-1.26876 3.63456,-1.90665 6.02839,-1.90665c2.20457,0 3.96752,0.63789 5.28535,1.90665c1.31783,1.27227 1.97676,3.02822 1.97676,5.27134l0,-0.00002zm0,0" id="svg_17" fill="url(#svg_58)"/>
      </g>
     </g>
    </g>
    <g fill="#100f0f" id="svg_18">
     <g id="svg_19">
      <g id="svg_20">
       <path d="m227.53847,83.93207c1.00941,0 1.78749,0.15422 2.34126,0.46265c0.55026,0.30843 0.82715,0.75355 0.82715,1.33185c0,0.23483 -0.07711,0.54326 -0.22431,0.92529c-0.1402,0.33647 -0.34698,0.6414 -0.61686,0.91127c-0.26287,0.26287 -0.50119,0.45563 -0.71499,0.5748c-0.2173,0.11216 -0.37152,0.2173 -0.46265,0.30843c-0.76757,0.44162 -1.38793,0.92179 -1.86459,1.44401c-0.47666,0.52573 -0.88323,1.33887 -1.2197,2.4394l-8.6921,30.95509c-0.18927,0.61686 -0.28039,1.21619 -0.28039,1.7945c0,0.5713 0.07711,1.04796 0.23834,1.42999c0.16823,0.38554 0.42059,0.7921 0.75705,1.21969c0.42759,0.62737 0.6449,1.13208 0.6449,1.51411c0,0.09463 -0.04907,0.33297 -0.1402,0.715c-0.18927,0.67294 -0.61686,1.14259 -1.2898,1.40195c-0.67294,0.26287 -1.67884,0.39255 -3.0142,0.39255l-16.8795,0c-1.0024,0 -1.77347,-0.16823 -2.32724,-0.5047c-0.55026,-0.33647 -0.82716,-0.7886 -0.82716,-1.3599c0,-0.2874 0.0701,-0.60283 0.2103,-0.9393c0.19627,-0.52223 0.51171,-0.9288 0.9393,-1.2197c0.4311,-0.2874 0.69397,-0.45563 0.7851,-0.5047c0.76406,-0.47666 1.38793,-0.96033 1.86459,-1.45803c0.48367,-0.5047 0.89024,-1.33185 1.2197,-2.48145l8.76219,-30.95509c0.19627,-0.62387 0.29441,-1.2232 0.29441,-1.7945c0,-0.52223 -0.08412,-0.96033 -0.25235,-1.31783c-0.16823,-0.36451 -0.39956,-0.78509 -0.68696,-1.26176c-0.4311,-0.62387 -0.6449,-1.12857 -0.6449,-1.51411c0,-0.1402 0.04556,-0.39955 0.1402,-0.78509c0.19627,-0.62387 0.61686,-1.06899 1.26176,-1.33186c0.6449,-0.25936 1.63327,-0.39255 2.97214,-0.39255l16.8795,0l0.00001,-0.00001zm0,0" id="svg_21" fill="url(#svg_58)"/>
      </g>
     </g>
    </g>
    <g fill="#100f0f" id="svg_22">
     <g id="svg_23">
      <g id="svg_24">
       <path d="m268.54455,123.28486c-0.19627,0.61686 -0.29441,1.24073 -0.29441,1.86459c0,0.52573 0.07009,0.96735 0.21029,1.33186c0.1472,0.3575 0.30843,0.64139 0.47666,0.85519c0.16823,0.2173 0.27338,0.37152 0.32245,0.46265c0.47666,0.48718 0.71499,0.96734 0.71499,1.44401c0,0.09463 -0.04907,0.33297 -0.1402,0.715c-0.19627,0.67294 -0.61686,1.14259 -1.26176,1.40195c-0.6449,0.26287 -1.63678,0.39255 -2.97214,0.39255l-17.01969,0c-1.00941,0 -1.79099,-0.16823 -2.34125,-0.5047c-0.55377,-0.33647 -0.82716,-0.7886 -0.82716,-1.3599c0,-0.2874 0.0736,-0.60283 0.22431,-0.9393c0.1402,-0.38203 0.33998,-0.67994 0.60284,-0.89725c0.25936,-0.2138 0.63438,-0.46615 1.12156,-0.75705c0.76406,-0.42759 1.38793,-0.90426 1.86459,-1.42999c0.47666,-0.52223 0.88323,-1.38092 1.2197,-2.57959l1.86459,-6.18261l-11.20159,0l-1.93469,4.0937c-0.81313,1.77697 -1.2197,3.16491 -1.2197,4.1638c0,0.58181 0.09112,1.04796 0.28039,1.40195c0.19627,0.3575 0.48367,0.72551 0.86921,1.10754c0.32595,0.38554 0.55026,0.71149 0.67294,0.98137c0.11916,0.26287 0.13319,0.60985 0.04206,1.03744c-0.19627,0.72201 -0.59584,1.21269 -1.19166,1.47205c-0.59934,0.26287 -1.54215,0.39255 -2.83194,0.39255l-10.69689,0c-1.10054,0 -1.9382,-0.19978 -2.5095,-0.60284c-0.5783,-0.41007 -0.86921,-0.95333 -0.86921,-1.62626c0,-0.76406 0.27688,-1.37391 0.82715,-1.82254c0.55377,-0.45563 1.38093,-0.94631 2.48146,-1.47204c1.42999,-0.7185 2.57258,-1.42298 3.43479,-2.11695c0.86921,-0.70098 1.61224,-1.67183 2.2291,-2.91606l12.7858,-26.49689c1.96273,-4.11122 4.26894,-7.08686 6.92564,-8.93043c2.66371,-1.85058 6.1721,-2.77586 10.52866,-2.77586c4.87879,0 8.65705,0.99538 11.34178,2.98615c2.68123,1.98376 4.02361,4.74561 4.02361,8.28554c0,1.48607 -0.24534,3.02121 -0.72901,4.5984l-7.02378,24.422l0.00001,-0.00003zm-14.0756,-13.3606l3.79929,-12.6456c0.19627,-0.56779 0.29441,-1.16712 0.29441,-1.7945c0,-0.90426 -0.25235,-1.5842 -0.75705,-2.03283c-0.5047,-0.45563 -1.21269,-0.68696 -2.11694,-0.68696c-1.1496,0 -2.13097,0.33647 -2.9441,1.00941c-0.81313,0.66593 -1.62626,1.86109 -2.4394,3.589l-5.8882,12.56149l10.05199,0l0,-0.00001zm0,0" id="svg_25" fill="url(#svg_58)"/>
      </g>
     </g>
    </g>
    <g fill="#100f0f" id="svg_26">
     <g id="svg_27">
      <g id="svg_28">
       <path d="m15.43394,208.74812l0,-63.22802l13.02414,0l5.8181,30.25412l0,-30.25412l12.211,0l0,63.22802l-12.36521,0l-6.32281,-31.65607l0,31.65607l-12.36521,0l-0.00001,0zm0,0" id="svg_29" fill="url(#svg_58)"/>
      </g>
     </g>
    </g>
    <g fill="#100f0f" id="svg_30">
     <g id="svg_31">
      <g id="svg_32">
       <path d="m48.62395,208.74812l0,-63.22802l25.31925,0l0,12.22502l-12.44933,0l0,12.2811l11.93061,0l0,11.9306l-11.93061,0l0,14.49618l13.24845,0l0,12.29512l-26.11837,0zm0,0" id="svg_33" fill="url(#svg_58)"/>
      </g>
     </g>
    </g>
    <g fill="#100f0f" id="svg_34">
     <g id="svg_35">
      <g id="svg_36">
       <path d="m80.92452,208.74812l0,-51.08712l-7.50044,0l0,-12.1409l27.67453,0l0,12.1409l-7.51446,0l0,51.08712l-12.65963,0zm0,0" id="svg_37" fill="url(#svg_58)"/>
      </g>
     </g>
    </g>
    <g fill="#100f0f" id="svg_41">
     <g id="svg_42">
      <g id="svg_43">
       <path d="m114.92989,208.74812l0,-63.22802l19.27684,0l5.29938,38.56769l5.29938,-38.56769l19.43105,0l0,63.22802l-11.55208,0l0,-45.56343l-7.29015,45.56343l-11.32777,0l-7.73877,-45.56343l0,45.56343l-11.39787,0l-0.00001,0zm0,0" id="svg_44" fill="url(#svg_58)"/>
      </g>
     </g>
    </g>
    <g fill="#100f0f" id="svg_45">
     <g id="svg_46">
      <g id="svg_47">
       <path d="m164.67461,208.74812l6.11251,-63.22802l21.4078,0l6.04242,63.22802l-12.00071,0l-0.88323,-10.23425l-7.65466,0l-0.72901,10.23425l-12.29511,0l-0.00001,0zm13.97745,-20.31429l5.748,0l-2.8039,-32.16077l-0.58882,0l-2.35528,32.16077zm0,0" id="svg_48" fill="url(#svg_58)"/>
      </g>
     </g>
    </g>
    <g fill="#100f0f" id="svg_49">
     <g id="svg_50">
      <g id="svg_51">
       <path d="m236.98812,208.79181l42.4511,-46.83921l9.05661,8.21544l-42.4511,46.83921l-9.05661,-8.21544zm0,0" id="svg_52" fill="url(#svg_58)"/>
      </g>
     </g>
    </g>
    <g fill="#100f0f" id="svg_53">
     <g id="svg_54">
      <g id="svg_55">
       <path d="m213.53309,212.42489c-4.72107,-2.18004 -7.61259,-5.13114 -8.67808,-8.86034c-1.06548,-3.72919 -0.38554,-8.21894 2.04685,-13.47275l19.38899,-42.03051l11.17356,5.14516l-19.1787,41.55385c-0.84117,1.83305 -1.32485,3.34366 -1.44401,4.52831c-0.11216,1.18816 0.41007,2.04685 1.57019,2.57959c1.1496,0.53274 2.13097,0.37852 2.9441,-0.46265c0.82014,-0.84117 1.66131,-2.19405 2.52351,-4.06566l19.1787,-41.55385l11.17356,5.15918l-19.389,42.03051c-2.43239,5.25032 -5.41153,8.68159 -8.94445,10.29033c-3.53292,1.61575 -7.65466,1.33536 -12.36521,-0.84117l-0.00001,0zm0,0" id="svg_56" fill="url(#svg_58)"/>
      </g>
     </g>
    </g>
   </g>
  </g>
 </g>
</svg>