<svg xmlns="http://www.w3.org/2000/svg" xmlns:xlink="http://www.w3.org/1999/xlink" width="468" zoomAndPan="magnify" viewBox="0 0 351 219" height="292" preserveAspectRatio="xMidYMid meet" version="1.0"><defs><g/></defs><path stroke-linecap="butt" transform="matrix(0.966818, 0, 0, 0.966818, 28.554639, 20.7171)" fill="none" stroke-linejoin="miter" d="M 91.355595 42.166426 C 91.222265 42.586619 91.080854 42.934086 90.927322 43.200746 C 90.862677 44.109817 90.692984 45.006767 90.422283 45.899676 C 90.155622 46.788545 89.602099 47.511762 88.761714 48.069325 C 88.422327 48.335986 87.913248 48.546082 87.222354 48.699614 C 86.951653 48.966275 86.709234 49.099605 86.491057 49.099605 C 83.885054 49.588483 81.270971 50.077361 78.652847 50.562199 C 76.030683 51.034916 73.4166 51.438947 70.810597 51.774293 C 70.810597 54.057071 70.794436 56.335808 70.762114 58.606465 C 70.725751 60.873081 70.70959 63.143738 70.70959 65.410354 C 70.70959 68.56988 70.725751 71.721325 70.762114 74.864689 C 70.794436 77.991892 70.810597 81.143338 70.810597 84.319025 C 70.879283 86.100803 70.943928 87.906824 71.012613 89.741126 C 71.081298 91.555227 71.145943 93.361248 71.214629 95.159188 C 71.145943 96.387443 70.952008 97.571255 70.632824 98.714664 C 70.3298 99.858073 69.699511 100.807547 68.741957 101.563086 L 68.741957 101.336828 C 68.810642 100.581289 68.842964 99.841912 68.842964 99.118696 C 68.842964 98.395479 68.879327 97.688424 68.943972 97.001571 L 68.943972 93.090547 C 68.741957 93.983456 68.568223 95.082422 68.414691 96.395524 C 68.281361 97.704586 68.047022 98.872236 67.711676 99.898476 C 67.356129 101.009563 66.624832 101.841867 65.517786 102.395391 C 64.422861 102.932752 63.331976 103.066083 62.241091 102.799422 C 60.103765 102.108528 58.693695 100.746942 58.002801 98.714664 C 57.315948 96.682386 56.903836 94.662229 56.770505 92.662273 C 56.616973 90.060311 56.560409 87.409865 56.592732 84.723056 C 56.641215 82.032207 56.70182 79.385801 56.770505 76.779798 C 56.903836 74.161674 57.053327 71.503148 57.223021 68.816339 C 57.388673 66.125489 57.509883 63.446761 57.574528 60.772073 L 57.800786 56.2348 L 57.800786 52.909622 C 57.113932 52.909622 56.4392 52.909622 55.784669 52.909622 C 55.130138 52.909622 54.459446 52.909622 53.768552 52.909622 C 50.944372 52.909622 48.188878 52.808614 45.498029 52.606598 C 44.407144 52.469227 43.32434 52.287413 42.249616 52.049035 C 41.187013 51.798535 40.172894 51.402584 39.199179 50.865223 C 38.508285 50.380385 37.869915 49.790499 37.280029 49.099605 C 36.710345 48.412752 36.249749 47.657213 35.894202 46.832989 C 34.867962 46.279466 34.096262 45.43908 33.575061 44.311833 C 33.053861 43.168424 32.936692 41.976531 33.223554 40.732114 C 33.5589 39.705875 34.189189 38.780643 35.114421 37.956418 C 36.055814 37.116033 37.069933 36.772606 38.164858 36.926138 C 40.989038 37.192799 43.809177 37.410976 46.633357 37.580669 C 49.457537 37.746322 52.281716 37.831169 55.105896 37.831169 C 55.105896 37.766524 55.122057 37.714 55.15438 37.681677 C 55.190742 37.649355 55.206904 37.59683 55.206904 37.528145 C 49.62723 37.192799 44.055636 36.570591 38.492124 35.66556 C 38.338592 35.66556 38.282027 35.564552 38.31435 35.362537 C 38.366874 35.160521 38.459801 35.091836 38.593132 35.160521 C 45.817213 35.580714 53.045336 35.722125 60.273458 35.588794 C 67.50158 35.439303 74.693339 35.051433 81.852776 34.429224 C 82.406299 34.295894 82.951742 34.211047 83.493144 34.178725 C 84.046667 34.142362 84.567867 34.093878 85.052705 34.025193 C 85.323406 34.025193 85.610269 34.009031 85.913292 33.976709 C 86.232477 33.940346 86.53146 33.956507 86.818322 34.025193 C 87.573861 33.891862 88.349602 33.790854 89.137463 33.722169 C 89.929364 33.637323 90.701064 33.564597 91.456603 33.495912 C 91.945481 33.427226 92.240424 33.689847 92.341432 34.275692 C 92.44244 34.865578 92.212142 35.229206 91.658619 35.362537 C 91.323273 35.362537 91.080854 35.394859 90.927322 35.463545 C 91.214184 35.596875 91.424281 35.738286 91.557611 35.891818 C 92.733343 36.578671 93.307067 37.665516 93.270704 39.144271 C 93.238382 40.623026 92.600012 41.629064 91.355595 42.166426 Z M 45.498029 50.133926 C 47.300009 50.267256 49.12219 50.267256 50.968614 50.133926 C 48.904014 49.93191 46.835373 49.649088 44.766732 49.277379 C 42.718292 48.889509 40.694095 48.38851 38.694139 47.766301 C 39.518364 48.52184 40.540563 49.091525 41.768819 49.479395 C 43.013235 49.847063 44.257652 50.069281 45.498029 50.133926 Z M 146.69982 63.648777 L 146.372555 65.814385 C 146.303869 66.788101 145.859435 67.640607 145.035211 68.359783 C 144.210986 69.082999 143.390803 69.410265 142.566579 69.34562 C 140.162592 69.208249 137.734363 69.042596 135.281892 68.840581 C 132.841542 68.622404 130.413313 68.412307 127.993165 68.210292 C 130.817345 72.412218 133.298098 76.67879 135.431384 81.018088 C 136.809131 83.975598 138.186878 87.058358 139.564625 90.270407 C 140.942372 93.462256 141.42317 96.738951 141.002977 100.100492 C 140.869647 101.211578 140.324204 101.922674 139.362609 102.241859 C 138.405055 102.544882 137.471742 102.52064 136.566712 102.169133 C 136.093995 102.233778 135.633399 102.25398 135.180884 102.217617 C 134.724329 102.185294 134.263733 102.068125 133.791016 101.866109 C 133.657686 101.866109 133.593041 101.833787 133.593041 101.765101 C 133.172848 102.169133 132.716292 102.270141 132.231455 102.068125 C 131.338545 99.664138 130.37291 97.24399 129.330509 94.80768 C 128.304269 92.351169 127.28207 89.959303 126.25583 87.619961 C 125.900282 86.714931 125.383122 85.454353 124.692228 83.842267 C 124.001335 82.226142 123.282159 80.545371 122.52258 78.799955 C 121.767041 77.034338 121.043825 75.531341 120.356971 74.286924 C 119.799408 73.058669 119.253965 71.992026 118.716604 71.082955 L 118.716604 70.981947 C 118.094395 70.093078 117.50855 69.135524 116.950986 68.109284 C 115.641924 68.024437 114.2965 67.951711 112.918753 67.883026 C 111.541005 67.814341 110.163258 67.749696 108.785511 67.68101 C 109.068333 70.016312 109.314792 72.359694 109.516808 74.715198 C 109.718824 77.050499 109.860235 79.422164 109.945081 81.82211 C 110.078412 84.379629 110.231944 86.949269 110.397596 89.539111 C 110.56729 92.10875 110.583451 94.67031 110.450121 97.227829 C 110.514766 97.494489 110.551128 97.789432 110.551128 98.108617 C 110.551128 98.411641 110.551128 98.698503 110.551128 98.965164 C 109.860235 100.278266 109.068333 101.312586 108.179464 102.068125 C 107.48857 102.621648 106.692628 102.90043 105.783558 102.90043 C 104.894688 102.90043 104.14723 102.552963 103.541183 101.866109 C 103.189676 101.312586 102.979579 100.755023 102.910894 100.2015 C 102.490701 100.286346 102.070509 100.177258 101.650316 99.874234 C 101.246285 99.55505 101.044269 99.118696 101.044269 98.561132 C 100.777608 97.454086 100.660439 96.302597 100.692762 95.110704 C 100.725084 93.89861 100.6766 92.739039 100.53923 91.631993 L 99.609957 84.824064 C 99.189765 82.420077 98.769572 79.999929 98.349379 77.563619 C 97.945348 75.111148 97.541317 72.678879 97.137285 70.278933 L 96.506996 66.64669 C 96.438311 66.64669 96.357504 66.64669 96.256497 66.64669 C 96.155489 66.64669 96.030239 66.64669 95.876707 66.64669 C 95.876707 66.242659 95.674691 66.00832 95.27066 65.939635 C 94.717137 65.790143 94.147453 65.61237 93.557567 65.410354 C 92.987882 65.208338 92.422238 64.998242 91.868715 64.780065 L 94.24038 64.481082 C 93.21414 64.07705 92.179819 63.531608 91.137418 62.840714 C 90.179864 62.218506 89.642502 61.345798 89.525333 60.21855 C 89.424325 59.075141 89.650583 58.061022 90.204106 57.168113 C 90.757629 56.259042 91.54953 55.806527 92.57577 55.806527 C 92.927278 55.737842 93.254543 55.705519 93.557567 55.705519 C 93.876751 55.705519 94.171694 55.705519 94.438355 55.705519 C 94.103009 53.92374 93.743421 52.141962 93.355551 50.360183 C 92.987882 48.562243 92.591932 46.796626 92.171739 45.067372 C 93.060608 44.376478 93.783824 43.620939 94.337347 42.796715 C 93.379793 41.976531 92.676778 40.905848 92.220223 39.596786 C 91.767707 38.287724 91.820232 37.051388 92.373755 35.891818 C 93.060608 34.578716 94.094928 33.790854 95.472676 33.520153 C 96.850423 33.237331 98.329178 33.200969 99.908941 33.419146 C 101.488704 33.621161 102.834128 33.823177 103.945215 34.025193 C 104.280561 34.025193 104.591665 34.158523 104.878527 34.429224 C 105.213873 34.562554 105.565381 34.708006 105.93709 34.857497 C 106.320919 34.990828 106.692628 35.128198 107.044136 35.261529 C 107.112821 35.261529 107.161305 35.27769 107.197668 35.310013 C 107.22999 35.346375 107.278474 35.362537 107.347159 35.362537 C 113.060164 37.160477 118.514588 39.665471 123.710432 42.873481 C 128.918397 46.069369 134.037475 49.378387 139.063626 52.808614 C 139.75048 53.362137 140.231277 54.117675 140.497938 55.07523 C 141.253476 55.564108 141.976693 56.085309 142.667586 56.638832 C 143.35444 57.192355 144.045334 57.737797 144.732187 58.279199 C 146.380635 59.519576 147.035166 61.309435 146.69982 63.648777 Z M 104.777519 47.867309 C 104.842164 47.931954 104.878527 48.032962 104.878527 48.170333 C 104.878527 48.303663 104.91085 48.436994 104.979535 48.570324 C 105.246196 48.303663 105.565381 48.186494 105.93709 48.218817 C 106.320919 48.251139 106.551217 48.51376 106.615862 48.998597 C 106.902725 50.093522 107.161305 51.176327 107.399683 52.25105 C 107.650183 53.309613 107.87644 54.396457 108.078456 55.503503 C 108.349157 55.572189 108.615818 55.604511 108.886519 55.604511 C 109.169341 55.604511 109.448123 55.640874 109.718824 55.705519 C 109.868315 55.083311 110.179419 54.570191 110.652136 54.1702 C 111.690497 53.479306 112.740979 53.269209 113.799541 53.539911 C 114.878305 53.806571 115.912625 54.267167 116.902502 54.925738 C 117.892379 55.580269 118.769128 56.250961 119.524666 56.941855 L 129.556767 58.178191 C 125.556856 55.418657 121.492299 52.998508 117.355018 50.917747 C 113.237937 48.816783 108.935003 47.245101 104.450254 46.2027 Z M 112.11069 94.326883 C 111.892513 90.060311 111.666255 85.773538 111.431917 81.470603 C 111.197579 77.167668 110.769305 72.917258 110.147097 68.715331 L 110.979402 68.715331 C 111.516764 71.672841 111.920795 74.707117 112.187456 77.814119 C 112.474318 80.908999 112.749059 83.99984 113.01976 87.09068 C 113.169252 88.957305 113.104607 90.318891 112.817745 91.175438 C 112.551084 92.031984 112.312705 93.082466 112.11069 94.326883 Z M 145.750346 43.427004 C 145.54833 42.740151 145.612976 42.049257 145.952362 41.362403 C 146.303869 40.67151 146.647296 40.085664 146.982642 39.596786 C 147.673536 38.570546 148.538163 37.714 149.580564 37.027146 C 149.851265 36.740284 150.053281 36.56251 150.186611 36.497865 C 151.564358 35.53627 153.026952 34.817094 154.574393 34.328216 C 156.133954 33.839338 157.705636 33.807016 159.285399 34.227208 C 160.663146 34.578716 161.86716 35.15244 162.8934 35.940302 C 163.935801 36.732203 164.691339 37.815007 165.160016 39.192755 C 165.378193 39.730116 165.34587 40.243236 165.059008 40.732114 C 164.792347 41.216952 164.44488 41.629064 164.024688 41.968451 C 162.311594 43.208827 160.489413 44.041132 158.554102 44.461324 C 157.931894 45.152218 157.11171 45.649177 156.08547 45.94816 C 155.05923 46.251184 154.061273 46.404716 153.083517 46.404716 C 152.263333 46.404716 151.45527 46.33603 150.663368 46.2027 C 149.875507 46.069369 149.103807 45.867354 148.344228 45.596653 C 147.85939 45.447161 147.33819 45.168379 146.784667 44.764348 C 146.243265 44.344155 145.899838 43.899721 145.750346 43.427004 Z M 152.683525 45.899676 C 154.194603 45.899676 155.18448 45.750185 155.657197 45.447161 C 156.142034 45.127976 156.352131 44.966364 156.287486 44.966364 C 155.665277 45.099694 154.974384 45.200702 154.218845 45.269387 C 153.463306 45.338073 152.505752 45.269387 151.346181 45.067372 C 149.814902 44.732025 148.792703 44.049212 148.271502 43.027013 C 147.766463 41.984612 147.758382 40.873525 148.24322 39.697794 C 147.758382 40.251317 147.301827 40.905848 146.881634 41.665427 C 146.683659 42.150265 146.582651 42.586619 146.582651 42.974489 C 146.582651 43.346198 146.792747 43.697705 147.21294 44.033051 C 147.899793 44.586574 148.554324 44.966364 149.176533 45.168379 C 150.202772 45.519887 151.370423 45.766346 152.683525 45.899676 Z M 163.422681 97.530852 C 162.933803 98.351036 162.210586 98.940922 161.253032 99.292429 C 161.321717 99.631816 161.277274 99.991404 161.127782 100.379274 C 160.994452 100.746942 160.691428 101.033805 160.218712 101.23582 C 158.974295 101.858029 157.649072 102.031762 156.234962 101.765101 C 154.824892 101.478239 153.64108 100.856031 152.683525 99.898476 L 152.48151 99.595453 C 151.992632 99.393437 151.471431 99.082333 150.917908 98.66214 C 149.822983 97.639941 149.152291 96.403604 148.901791 94.957172 C 148.663413 93.494578 148.445236 92.040065 148.24322 90.597673 C 147.758382 86.747253 147.386673 82.917035 147.136174 79.098939 C 146.901836 75.268721 146.816989 71.430422 146.881634 67.580003 C 146.881634 65.713377 146.881634 63.838672 146.881634 61.959925 C 146.881634 60.060978 146.994763 58.186272 147.21294 56.335808 C 147.34627 55.362092 147.580609 54.412618 147.915955 53.487386 C 148.271502 52.562154 148.75634 51.790454 149.378548 51.168246 C 149.511879 50.96623 149.649249 50.780376 149.78258 50.614723 C 149.91591 50.428869 150.053281 50.267256 150.186611 50.133926 C 150.958311 49.649088 151.944148 49.043041 153.136041 48.319825 C 154.344095 47.596608 155.531947 47.184496 156.691517 47.083488 C 157.867249 46.982481 158.731876 47.62085 159.285399 48.998597 C 159.624785 48.933952 159.960131 48.998597 160.295478 49.200613 C 160.646985 49.402629 160.857081 49.750096 160.925767 50.234933 C 160.925767 52.170244 160.893444 54.069192 160.824759 55.931777 C 160.756073 57.782241 160.723751 59.673108 160.723751 61.604378 C 160.723751 63.454842 160.756073 65.329548 160.824759 67.228495 C 160.893444 69.111282 160.96617 71.01831 161.051016 72.94958 C 161.051016 73.301088 161.067178 73.705119 161.10354 74.161674 C 161.135863 74.598028 161.184347 75.050544 161.253032 75.51922 C 161.321717 75.454575 161.402524 75.729316 161.503531 76.351525 C 161.604539 76.973733 161.689386 77.57978 161.758071 78.169666 C 161.822716 78.755512 161.891402 79.050455 161.960087 79.050455 C 161.891402 76.561621 161.842918 73.806127 161.806555 70.779931 C 161.774233 67.757776 161.774233 64.731581 161.806555 61.705386 C 161.842918 58.663029 161.935845 55.939857 162.085337 53.539911 C 162.085337 53.40254 162.202506 53.317693 162.436844 53.285371 C 162.675223 53.253048 162.792392 53.269209 162.792392 53.337895 C 162.590376 60.699347 162.691384 68.048679 163.095415 75.39397 C 163.515608 82.7231 164.202461 90.068392 165.160016 97.429844 C 165.228701 97.898521 164.986282 98.161141 164.428719 98.209625 C 163.891357 98.241947 163.556011 98.01569 163.422681 97.530852 Z M 151.952229 55.402495 C 151.192649 57.737797 150.764376 60.202389 150.663368 62.78819 C 150.56236 65.36187 150.445191 67.858784 150.311861 70.278933 L 150.311861 71.309213 C 150.311861 71.377898 150.311861 71.41022 150.311861 71.41022 C 150.311861 71.41022 150.311861 71.446583 150.311861 71.511228 C 150.445191 72.739484 150.582562 73.97582 150.715892 75.220237 C 150.849223 76.460613 150.982553 77.70503 151.119924 78.949447 L 151.447189 78.949447 C 151.447189 76.597984 151.431028 74.270763 151.394665 71.967784 C 151.362343 69.664805 151.378504 67.345664 151.447189 65.010363 C 151.447189 63.208383 151.532036 61.402362 151.697689 59.588261 C 151.867382 57.757999 152.22697 56.016623 152.784533 54.368175 L 152.683525 54.368175 C 152.194647 54.707561 151.952229 55.050988 151.952229 55.402495 Z M 208.54491 47.035005 C 208.54491 49.236976 208.41562 51.418746 208.165121 53.588394 C 207.930783 55.758043 207.611598 57.939813 207.207566 60.141784 C 206.787374 62.210425 206.314657 64.311388 205.793456 66.444674 C 205.292457 68.582001 204.654088 70.646601 203.878347 72.646557 C 203.122809 74.561666 202.314746 76.505057 201.458199 78.47269 C 200.601653 80.436283 199.761267 82.387754 198.937043 84.319025 C 198.803713 84.589726 198.735027 84.755378 198.735027 84.824064 C 198.51685 85.175571 198.306754 85.54728 198.104738 85.93111 C 197.902723 86.302819 197.73707 86.654326 197.603739 86.989672 C 196.694669 88.573475 195.793679 90.05223 194.904809 91.429978 C 194.351286 92.250161 193.434135 93.369328 192.157396 94.783438 C 190.896818 96.193508 189.434224 97.587417 187.769614 98.965164 C 186.121166 100.342911 184.476758 101.445917 182.82831 102.270141 C 181.179862 103.094365 179.668784 103.336784 178.291037 103.001438 C 176.91329 102.662051 175.846647 101.462078 175.091108 99.393437 C 174.872931 98.839914 174.678996 98.27023 174.509303 97.680344 C 174.33961 97.090458 174.190118 96.520774 174.056788 95.967251 C 172.54167 95.429889 171.786131 94.29456 171.786131 92.561266 C 171.854817 91.603711 171.870978 90.613834 171.838655 89.587594 C 171.802292 88.545193 171.709365 87.510873 171.559874 86.488673 C 171.559874 86.270496 171.527551 86.125045 171.458866 86.0604 C 171.39018 85.721014 171.357858 85.42203 171.357858 85.151329 C 171.357858 84.864467 171.357858 84.589726 171.357858 84.319025 C 171.289173 83.563486 171.208366 82.84027 171.107358 82.149376 C 171.006351 81.462522 170.921504 80.771629 170.852819 80.084775 C 170.367981 76.149509 169.745773 72.226364 168.990234 68.311299 C 168.650847 66.311344 168.291259 64.311388 167.903389 62.311433 C 167.519559 60.311477 167.123609 58.351925 166.719577 56.436816 C 166.299384 54.43686 165.846869 52.453066 165.357991 50.489473 C 164.889315 48.52184 164.517606 46.578449 164.250945 44.66334 C 164.166099 44.445163 164.222663 44.303752 164.424679 44.235067 C 164.642856 44.166381 164.788307 44.202744 164.852952 44.336075 L 165.786265 46.303708 C 165.519604 45.479484 165.2085 44.396679 164.852952 43.051255 C 164.517606 41.70583 164.351953 40.368486 164.351953 39.043263 C 164.351953 37.697838 164.679218 36.578671 165.333749 35.689802 C 165.98828 34.780731 167.107447 34.396902 168.68721 34.530232 C 171.224528 34.748409 173.200241 35.823133 174.610311 37.758443 C 176.020381 39.673552 177.03854 41.730072 177.660748 43.932043 C 178.416287 46.687538 179.107181 49.463233 179.729389 52.25105 C 180.351597 55.042907 180.905121 57.850926 181.389958 60.671065 C 181.591974 61.62862 181.878836 63.159899 182.250545 65.260862 C 182.634375 67.361826 183.030326 69.596119 183.434357 71.967784 C 183.85455 74.335408 184.230299 76.436371 184.569686 78.270674 C 184.921193 80.100936 185.131289 81.183741 185.199975 81.523127 C 186.375706 78.428246 187.426188 75.284882 188.35142 72.093034 C 189.272611 68.880984 190.080674 65.656813 190.771568 62.412441 C 191.676598 57.737797 192.331129 53.010629 192.735161 48.218817 C 193.155353 43.427004 193.292724 38.663473 193.139192 33.924185 C 193.139192 33.237331 193.466458 32.889864 194.120988 32.889864 C 194.77956 32.889864 195.139148 33.237331 195.207833 33.924185 C 195.55934 42.396724 194.981575 50.917747 193.466458 59.487253 C 191.95538 68.040598 189.373619 76.210114 185.729256 83.991759 C 185.793901 84.060444 185.846425 84.234178 185.878747 84.52104 C 185.91107 84.791741 185.931271 84.989717 185.931271 85.127087 C 189.022112 79.276712 191.325091 73.495023 192.836169 67.782018 C 194.351286 62.069014 195.349244 56.368131 195.838122 50.687449 C 196.32296 45.006767 196.533056 39.309924 196.468411 33.596919 C 198.803713 33.128243 201.005684 33.47167 203.074325 34.63124 C 203.894509 34.025193 204.755096 34.101959 205.643965 34.857497 C 206.399503 35.548391 206.912623 36.42918 207.183324 37.503903 C 207.466146 38.562466 207.744928 39.572544 208.015629 40.530099 C 208.298451 41.487653 208.476225 42.554296 208.54491 43.730028 C 208.609555 44.909799 208.609555 46.008765 208.54491 47.035005 Z M 206.973228 43.427004 C 206.771212 42.740151 206.839898 42.049257 207.175244 41.362403 C 207.530791 40.67151 207.874218 40.085664 208.209564 39.596786 C 208.900458 38.570546 209.765085 37.714 210.807486 37.027146 C 211.074147 36.740284 211.276163 36.56251 211.413533 36.497865 C 212.791281 35.53627 214.253874 34.817094 215.797274 34.328216 C 217.360876 33.839338 218.932558 33.807016 220.512321 34.227208 C 221.890068 34.578716 223.094082 35.15244 224.116281 35.940302 C 225.158683 36.732203 225.914221 37.815007 226.386938 39.192755 C 226.605115 39.730116 226.572793 40.243236 226.28593 40.732114 C 226.015229 41.216952 225.671802 41.629064 225.25161 41.968451 C 223.538517 43.208827 221.712294 44.041132 219.781024 44.461324 C 219.158816 45.152218 218.334592 45.649177 217.312392 45.94816 C 216.286152 46.251184 215.284155 46.404716 214.310439 46.404716 C 213.486215 46.404716 212.682192 46.33603 211.890291 46.2027 C 211.102429 46.069369 210.326689 45.867354 209.57115 45.596653 C 209.082272 45.447161 208.561072 45.168379 208.007549 44.764348 C 207.470187 44.344155 207.12676 43.899721 206.973228 43.427004 Z M 213.906407 45.899676 C 215.421525 45.899676 216.411402 45.750185 216.884119 45.447161 C 217.368957 45.127976 217.579053 44.966364 217.514408 44.966364 C 216.8922 45.099694 216.201306 45.200702 215.445767 45.269387 C 214.690228 45.338073 213.732674 45.269387 212.573104 45.067372 C 211.041825 44.732025 210.015585 44.049212 209.494384 43.027013 C 208.993385 41.984612 208.981264 40.873525 209.470142 39.697794 C 208.981264 40.251317 208.528749 40.905848 208.108556 41.665427 C 207.906541 42.150265 207.805533 42.586619 207.805533 42.974489 C 207.805533 43.346198 208.015629 43.697705 208.435822 44.033051 C 209.126716 44.586574 209.781246 44.966364 210.403455 45.168379 C 211.429695 45.519887 212.597346 45.766346 213.906407 45.899676 Z M 224.645563 97.530852 C 224.160725 98.351036 223.437509 98.940922 222.479954 99.292429 C 222.544599 99.631816 222.504196 99.991404 222.354704 100.379274 C 222.217334 100.746942 221.91431 101.033805 221.445634 101.23582 C 220.201217 101.858029 218.871954 102.031762 217.461884 101.765101 C 216.051814 101.478239 214.863962 100.856031 213.906407 99.898476 L 213.704392 99.595453 C 213.219554 99.393437 212.698353 99.082333 212.14483 98.66214 C 211.049905 97.639941 210.379213 96.403604 210.124673 94.957172 C 209.890335 93.494578 209.672158 92.040065 209.470142 90.597673 C 208.981264 86.747253 208.613596 82.917035 208.363096 79.098939 C 208.124718 75.268721 208.043911 71.430422 208.108556 67.580003 C 208.108556 65.713377 208.108556 63.838672 208.108556 61.959925 C 208.108556 60.060978 208.217645 58.186272 208.435822 56.335808 C 208.573193 55.362092 208.807531 54.412618 209.142877 53.487386 C 209.494384 52.562154 209.983262 51.790454 210.605471 51.168246 C 210.738801 50.96623 210.872131 50.780376 211.009502 50.614723 C 211.142832 50.428869 211.276163 50.267256 211.413533 50.133926 C 212.185233 49.649088 213.16703 49.043041 214.362963 48.319825 C 215.571017 47.596608 216.754829 47.184496 217.914399 47.083488 C 219.094171 46.982481 219.958798 47.62085 220.512321 48.998597 C 220.847667 48.933952 221.183013 48.998597 221.5224 49.200613 C 221.873907 49.402629 222.084003 49.750096 222.152689 50.234933 C 222.152689 52.170244 222.116326 54.069192 222.051681 55.931777 C 221.982996 57.782241 221.950673 59.673108 221.950673 61.604378 C 221.950673 63.454842 221.982996 65.329548 222.051681 67.228495 C 222.116326 69.111282 222.193092 71.01831 222.277938 72.94958 C 222.277938 73.301088 222.2941 73.705119 222.326422 74.161674 C 222.362785 74.598028 222.411269 75.050544 222.479954 75.51922 C 222.544599 75.454575 222.629446 75.729316 222.730454 76.351525 C 222.831462 76.973733 222.916308 77.57978 222.984993 78.169666 C 223.049638 78.755512 223.118324 79.050455 223.182969 79.050455 C 223.118324 76.561621 223.0658 73.806127 223.033477 70.779931 C 223.001155 67.757776 223.001155 64.731581 223.033477 61.705386 C 223.0658 58.663029 223.158727 55.939857 223.312259 53.539911 C 223.312259 53.40254 223.429428 53.317693 223.663766 53.285371 C 223.898104 53.253048 224.015274 53.269209 224.015274 53.337895 C 223.813258 60.699347 223.914266 68.048679 224.318297 75.39397 C 224.73849 82.7231 225.429384 90.068392 226.386938 97.429844 C 226.455623 97.898521 226.209164 98.161141 225.655641 98.209625 C 225.118279 98.241947 224.782933 98.01569 224.645563 97.530852 Z M 213.17511 55.402495 C 212.419572 57.737797 211.991298 60.202389 211.890291 62.78819 C 211.789283 65.36187 211.672114 67.858784 211.538783 70.278933 L 211.538783 71.309213 C 211.538783 71.377898 211.538783 71.41022 211.538783 71.41022 C 211.538783 71.41022 211.538783 71.446583 211.538783 71.511228 C 211.672114 72.739484 211.805444 73.97582 211.942815 75.220237 C 212.076145 76.460613 212.209475 77.70503 212.342806 78.949447 L 212.674111 78.949447 C 212.674111 76.597984 212.65391 74.270763 212.621587 71.967784 C 212.589265 69.664805 212.605426 67.345664 212.674111 65.010363 C 212.674111 63.208383 212.754918 61.402362 212.924611 59.588261 C 213.094304 57.757999 213.453892 56.016623 214.007415 54.368175 L 213.906407 54.368175 C 213.42157 54.707561 213.17511 55.050988 213.17511 55.402495 Z M 260.466989 99.898476 C 260.062957 99.765146 259.602362 99.04193 259.081161 97.732868 C 258.55996 96.419766 258.002397 94.80768 257.416552 92.892571 C 256.826666 90.957261 256.273143 88.957305 255.751942 86.892705 C 255.246903 84.824064 254.786307 82.965519 254.366114 81.321111 C 253.962083 79.672663 253.691382 78.460569 253.558051 77.688869 L 245.489544 77.814119 C 244.734005 80.908999 244.079474 83.983678 243.525951 87.042196 C 242.988589 90.100714 242.576477 93.219837 242.289615 96.395524 C 242.289615 97.017732 241.994672 97.328836 241.408826 97.328836 C 240.835102 97.328836 240.584602 97.017732 240.649247 96.395524 C 240.919948 93.300643 241.315899 90.193641 241.8371 87.066438 C 242.3583 83.923074 243.097678 80.840314 244.055232 77.814119 L 243.12192 77.814119 C 242.786574 79.042374 242.443147 80.53729 242.087599 82.302908 C 241.752253 84.052364 241.424988 85.773538 241.105803 87.47047 C 240.802779 89.15124 240.540159 90.56131 240.321982 91.704719 C 240.119966 92.831967 240.022999 93.39357 240.022999 93.39357 L 239.416952 98.031851 C 239.198775 100.387354 238.398792 102.076206 237.021045 103.102446 C 235.643298 104.144847 234.13222 104.552918 232.483772 104.334741 C 230.835324 104.132726 229.441416 103.344864 228.298007 101.967117 C 227.170759 100.58937 226.778849 98.698503 227.114195 96.294516 C 227.534387 93.268321 228.011144 90.242125 228.548506 87.21997 C 229.10607 84.177614 229.7606 81.17566 230.516139 78.21815 C 230.047463 78.286835 229.566665 78.335319 229.081828 78.371682 C 228.59295 78.404004 228.148515 78.420166 227.744484 78.420166 C 227.877814 78.08482 227.910137 77.773715 227.845492 77.486853 C 226.180882 77.082822 224.968788 76.193953 224.213249 74.816205 C 223.45771 73.438458 223.247614 71.907179 223.58296 70.226408 C 223.938508 68.529476 224.904143 66.973955 226.483906 65.563886 C 228.07983 64.149776 230.423212 63.208383 233.518093 62.739706 C 234.273631 59.293318 235.097856 55.899454 235.986725 52.554074 C 236.895795 49.208694 237.994761 45.956241 239.291702 42.796715 C 239.90987 41.418968 240.600764 39.924052 241.356302 38.311966 C 242.111841 36.69584 243.061315 35.285771 244.204724 34.077717 C 245.348133 32.865623 246.778404 32.259575 248.491497 32.259575 C 249.380366 32.19493 250.273276 32.437349 251.162145 32.990872 C 252.071216 33.548436 252.725747 34.235289 253.129778 35.059513 C 254.640856 35.128198 255.893353 35.66556 256.88727 36.671599 C 257.893309 37.665516 258.467033 38.982658 258.600364 40.631107 C 258.753896 42.699747 258.927629 44.780509 259.129645 46.881473 C 259.331661 48.982436 259.533676 51.034916 259.735692 53.034871 C 259.820539 53.099516 259.893264 53.135879 259.96195 53.135879 C 260.030635 51.337939 260.111441 49.564241 260.212449 47.814785 C 260.313457 46.049168 260.466989 44.311833 260.669005 42.59874 C 260.669005 42.311877 260.717488 42.934086 260.818496 44.461324 C 260.935665 45.976442 261.060915 47.915793 261.198286 50.287458 C 261.331616 52.655082 261.464946 55.034827 261.602317 57.418612 C 261.735647 59.790277 261.913421 61.76599 262.131598 63.345753 C 264.111352 63.547769 265.658793 64.218461 266.769879 65.36187 C 267.876925 66.505279 268.567819 67.814341 268.83448 69.293096 C 269.105181 70.771851 268.96377 72.234445 268.406206 73.680877 C 267.868845 75.12731 266.878968 76.29496 265.432535 77.18383 C 266.123429 80.210025 266.842605 83.640252 267.602184 87.47047 C 268.357723 91.284526 268.935487 94.738995 269.339519 97.833876 C 269.626381 100.169177 269.440527 101.942875 268.785996 103.150929 C 268.131465 104.363024 267.262797 105.033716 266.188074 105.167046 C 265.129511 105.304417 264.062868 104.924627 262.988145 104.031718 C 261.929583 103.142849 261.089197 101.765101 260.466989 99.898476 Z M 245.190561 64.380074 C 245.946099 64.242703 246.919815 64.157856 248.111708 64.125534 C 249.323802 64.093211 250.273276 64.040687 250.960129 63.976042 C 250.826799 63.066972 250.677307 61.790232 250.507614 60.141784 C 250.341961 58.497376 250.131865 56.731759 249.877325 54.848972 C 249.642987 52.950025 249.348044 51.200569 248.996537 49.604644 C 248.172313 52.497509 247.449096 55.083311 246.826888 57.370128 C 246.220841 59.640785 245.675398 61.976087 245.190561 64.380074 Z M 245.190561 64.380074 " stroke="#100a09" stroke-width="8.26144" stroke-opacity="1" stroke-miterlimit="4"/><g fill="#5271ff" fill-opacity="1"><g transform="translate(59.87049, 120.299391)"><g><path d="M 57 -58.796875 C 56.863281 -58.398438 56.734375 -58.066406 56.609375 -57.796875 C 56.535156 -56.929688 56.363281 -56.066406 56.09375 -55.203125 C 55.832031 -54.335938 55.300781 -53.640625 54.5 -53.109375 C 54.164062 -52.835938 53.671875 -52.640625 53.015625 -52.515625 C 52.742188 -52.242188 52.507812 -52.109375 52.3125 -52.109375 C 49.78125 -51.640625 47.25 -51.171875 44.71875 -50.703125 C 42.1875 -50.242188 39.660156 -49.847656 37.140625 -49.515625 C 37.140625 -47.316406 37.117188 -45.117188 37.078125 -42.921875 C 37.046875 -40.722656 37.03125 -38.53125 37.03125 -36.34375 C 37.03125 -33.28125 37.046875 -30.234375 37.078125 -27.203125 C 37.117188 -24.171875 37.140625 -21.125 37.140625 -18.0625 C 37.203125 -16.332031 37.265625 -14.585938 37.328125 -12.828125 C 37.398438 -11.066406 37.46875 -9.320312 37.53125 -7.59375 C 37.46875 -6.394531 37.285156 -5.242188 36.984375 -4.140625 C 36.679688 -3.046875 36.066406 -2.128906 35.140625 -1.390625 L 35.140625 -1.59375 C 35.203125 -2.332031 35.234375 -3.050781 35.234375 -3.75 C 35.234375 -4.445312 35.269531 -5.128906 35.34375 -5.796875 L 35.34375 -9.578125 C 35.144531 -8.710938 34.976562 -7.648438 34.84375 -6.390625 C 34.707031 -5.128906 34.472656 -4 34.140625 -3 C 33.804688 -1.925781 33.109375 -1.125 32.046875 -0.59375 C 30.984375 -0.0625 29.914062 0.0664062 28.84375 -0.203125 C 26.78125 -0.867188 25.414062 -2.179688 24.75 -4.140625 C 24.09375 -6.109375 23.695312 -8.054688 23.5625 -9.984375 C 23.425781 -12.515625 23.375 -15.078125 23.40625 -17.671875 C 23.4375 -20.265625 23.488281 -22.828125 23.5625 -25.359375 C 23.695312 -27.890625 23.847656 -30.453125 24.015625 -33.046875 C 24.179688 -35.640625 24.296875 -38.234375 24.359375 -40.828125 L 24.5625 -45.21875 L 24.5625 -48.421875 C 23.894531 -48.421875 23.242188 -48.421875 22.609375 -48.421875 C 21.972656 -48.421875 21.328125 -48.421875 20.671875 -48.421875 C 17.941406 -48.421875 15.273438 -48.519531 12.671875 -48.71875 C 11.609375 -48.851562 10.5625 -49.035156 9.53125 -49.265625 C 8.5 -49.492188 7.519531 -49.875 6.59375 -50.40625 C 5.925781 -50.875 5.304688 -51.441406 4.734375 -52.109375 C 4.171875 -52.773438 3.722656 -53.507812 3.390625 -54.3125 C 2.390625 -54.84375 1.640625 -55.65625 1.140625 -56.75 C 0.648438 -57.851562 0.535156 -59.003906 0.796875 -60.203125 C 1.128906 -61.191406 1.742188 -62.085938 2.640625 -62.890625 C 3.546875 -63.691406 4.53125 -64.023438 5.59375 -63.890625 C 8.320312 -63.617188 11.050781 -63.398438 13.78125 -63.234375 C 16.507812 -63.066406 19.238281 -62.984375 21.96875 -62.984375 C 21.96875 -63.054688 21.984375 -63.109375 22.015625 -63.140625 C 22.046875 -63.171875 22.0625 -63.222656 22.0625 -63.296875 C 16.664062 -63.628906 11.273438 -64.226562 5.890625 -65.09375 C 5.753906 -65.09375 5.703125 -65.191406 5.734375 -65.390625 C 5.773438 -65.585938 5.859375 -65.65625 5.984375 -65.59375 C 12.972656 -65.1875 19.960938 -65.050781 26.953125 -65.1875 C 33.941406 -65.320312 40.894531 -65.6875 47.8125 -66.28125 C 48.34375 -66.414062 48.875 -66.5 49.40625 -66.53125 C 49.945312 -66.5625 50.445312 -66.613281 50.90625 -66.6875 C 51.175781 -66.6875 51.457031 -66.703125 51.75 -66.734375 C 52.050781 -66.765625 52.335938 -66.75 52.609375 -66.6875 C 53.335938 -66.820312 54.082031 -66.921875 54.84375 -66.984375 C 55.613281 -67.046875 56.367188 -67.113281 57.109375 -67.1875 C 57.566406 -67.25 57.84375 -67 57.9375 -66.4375 C 58.039062 -65.875 57.828125 -65.523438 57.296875 -65.390625 C 56.960938 -65.390625 56.734375 -65.351562 56.609375 -65.28125 C 56.867188 -65.15625 57.066406 -65.023438 57.203125 -64.890625 C 58.335938 -64.222656 58.882812 -63.171875 58.84375 -61.734375 C 58.8125 -60.304688 58.195312 -59.328125 57 -58.796875 Z M 12.671875 -51.109375 C 14.410156 -50.972656 16.175781 -50.972656 17.96875 -51.109375 C 15.96875 -51.304688 13.96875 -51.585938 11.96875 -51.953125 C 9.976562 -52.328125 8.019531 -52.8125 6.09375 -53.40625 C 6.882812 -52.675781 7.878906 -52.128906 9.078125 -51.765625 C 10.273438 -51.398438 11.472656 -51.179688 12.671875 -51.109375 Z M 12.671875 -51.109375 "/></g></g></g><g fill="#5271ff" fill-opacity="1"><g transform="translate(113.475236, 120.299391)"><g><path d="M 56.90625 -38.03125 L 56.609375 -35.9375 C 56.535156 -35.007812 56.097656 -34.191406 55.296875 -33.484375 C 54.503906 -32.785156 53.707031 -32.472656 52.90625 -32.546875 C 50.582031 -32.679688 48.238281 -32.847656 45.875 -33.046875 C 43.507812 -33.242188 41.160156 -33.441406 38.828125 -33.640625 C 41.554688 -29.578125 43.953125 -25.453125 46.015625 -21.265625 C 47.347656 -18.398438 48.679688 -15.421875 50.015625 -12.328125 C 51.347656 -9.234375 51.8125 -6.054688 51.40625 -2.796875 C 51.28125 -1.734375 50.75 -1.050781 49.8125 -0.75 C 48.882812 -0.445312 47.988281 -0.460938 47.125 -0.796875 C 46.65625 -0.734375 46.203125 -0.71875 45.765625 -0.75 C 45.335938 -0.78125 44.890625 -0.894531 44.421875 -1.09375 C 44.285156 -1.09375 44.21875 -1.128906 44.21875 -1.203125 C 43.820312 -0.796875 43.390625 -0.695312 42.921875 -0.90625 C 42.054688 -3.226562 41.125 -5.570312 40.125 -7.9375 C 39.132812 -10.300781 38.140625 -12.613281 37.140625 -14.875 C 36.804688 -15.738281 36.304688 -16.953125 35.640625 -18.515625 C 34.972656 -20.078125 34.269531 -21.707031 33.53125 -23.40625 C 32.800781 -25.101562 32.109375 -26.550781 31.453125 -27.75 C 30.910156 -28.945312 30.375 -29.976562 29.84375 -30.84375 L 29.84375 -30.953125 C 29.25 -31.816406 28.6875 -32.742188 28.15625 -33.734375 C 26.882812 -33.804688 25.582031 -33.875 24.25 -33.9375 C 22.925781 -34.007812 21.597656 -34.078125 20.265625 -34.140625 C 20.535156 -31.878906 20.769531 -29.613281 20.96875 -27.34375 C 21.164062 -25.082031 21.296875 -22.789062 21.359375 -20.46875 C 21.492188 -18 21.644531 -15.515625 21.8125 -13.015625 C 21.976562 -10.523438 21.992188 -8.050781 21.859375 -5.59375 C 21.929688 -5.320312 21.96875 -5.035156 21.96875 -4.734375 C 21.96875 -4.441406 21.96875 -4.160156 21.96875 -3.890625 C 21.300781 -2.628906 20.535156 -1.632812 19.671875 -0.90625 C 19.003906 -0.363281 18.238281 -0.09375 17.375 -0.09375 C 16.507812 -0.09375 15.773438 -0.425781 15.171875 -1.09375 C 14.835938 -1.625 14.640625 -2.160156 14.578125 -2.703125 C 14.171875 -2.628906 13.769531 -2.742188 13.375 -3.046875 C 12.976562 -3.347656 12.78125 -3.765625 12.78125 -4.296875 C 12.507812 -5.359375 12.390625 -6.472656 12.421875 -7.640625 C 12.460938 -8.804688 12.414062 -9.921875 12.28125 -10.984375 L 11.375 -17.5625 C 10.976562 -19.894531 10.578125 -22.242188 10.171875 -24.609375 C 9.773438 -26.972656 9.378906 -29.316406 8.984375 -31.640625 L 8.390625 -35.140625 C 8.316406 -35.140625 8.226562 -35.140625 8.125 -35.140625 C 8.03125 -35.140625 7.914062 -35.140625 7.78125 -35.140625 C 7.78125 -35.535156 7.582031 -35.769531 7.1875 -35.84375 C 6.65625 -35.96875 6.101562 -36.128906 5.53125 -36.328125 C 4.96875 -36.535156 4.421875 -36.738281 3.890625 -36.9375 L 6.1875 -37.234375 C 5.1875 -37.628906 4.1875 -38.160156 3.1875 -38.828125 C 2.257812 -39.429688 1.742188 -40.28125 1.640625 -41.375 C 1.546875 -42.476562 1.765625 -43.460938 2.296875 -44.328125 C 2.828125 -45.191406 3.59375 -45.625 4.59375 -45.625 C 4.925781 -45.6875 5.238281 -45.71875 5.53125 -45.71875 C 5.832031 -45.71875 6.117188 -45.71875 6.390625 -45.71875 C 6.054688 -47.445312 5.707031 -49.175781 5.34375 -50.90625 C 4.976562 -52.644531 4.59375 -54.34375 4.1875 -56 C 5.050781 -56.664062 5.753906 -57.398438 6.296875 -58.203125 C 5.359375 -58.992188 4.671875 -60.019531 4.234375 -61.28125 C 3.804688 -62.550781 3.859375 -63.753906 4.390625 -64.890625 C 5.054688 -66.148438 6.054688 -66.910156 7.390625 -67.171875 C 8.722656 -67.441406 10.148438 -67.476562 11.671875 -67.28125 C 13.203125 -67.082031 14.503906 -66.882812 15.578125 -66.6875 C 15.910156 -66.6875 16.207031 -66.550781 16.46875 -66.28125 C 16.800781 -66.15625 17.148438 -66.023438 17.515625 -65.890625 C 17.878906 -65.753906 18.226562 -65.617188 18.5625 -65.484375 C 18.632812 -65.484375 18.6875 -65.46875 18.71875 -65.4375 C 18.75 -65.40625 18.800781 -65.390625 18.875 -65.390625 C 24.394531 -63.660156 29.664062 -61.25 34.6875 -58.15625 C 39.71875 -55.0625 44.660156 -51.847656 49.515625 -48.515625 C 50.179688 -47.984375 50.644531 -47.25 50.90625 -46.3125 C 51.644531 -45.851562 52.34375 -45.359375 53 -44.828125 C 53.664062 -44.296875 54.332031 -43.757812 55 -43.21875 C 56.601562 -42.019531 57.238281 -40.289062 56.90625 -38.03125 Z M 16.375 -53.3125 C 16.4375 -53.238281 16.46875 -53.132812 16.46875 -53 C 16.46875 -52.875 16.503906 -52.742188 16.578125 -52.609375 C 16.835938 -52.878906 17.148438 -52.992188 17.515625 -52.953125 C 17.878906 -52.921875 18.097656 -52.671875 18.171875 -52.203125 C 18.429688 -51.140625 18.675781 -50.09375 18.90625 -49.0625 C 19.144531 -48.03125 19.363281 -46.984375 19.5625 -45.921875 C 19.832031 -45.859375 20.097656 -45.828125 20.359375 -45.828125 C 20.628906 -45.828125 20.894531 -45.789062 21.15625 -45.71875 C 21.289062 -46.320312 21.59375 -46.820312 22.0625 -47.21875 C 23.0625 -47.882812 24.078125 -48.082031 25.109375 -47.8125 C 26.140625 -47.550781 27.132812 -47.101562 28.09375 -46.46875 C 29.0625 -45.832031 29.910156 -45.179688 30.640625 -44.515625 L 40.328125 -43.328125 C 36.472656 -45.984375 32.546875 -48.328125 28.546875 -50.359375 C 24.554688 -52.390625 20.398438 -53.90625 16.078125 -54.90625 Z M 23.453125 -8.390625 C 23.253906 -12.515625 23.039062 -16.65625 22.8125 -20.8125 C 22.582031 -24.96875 22.164062 -29.078125 21.5625 -33.140625 L 22.359375 -33.140625 C 22.890625 -30.273438 23.285156 -27.34375 23.546875 -24.34375 C 23.816406 -21.351562 24.085938 -18.363281 24.359375 -15.375 C 24.492188 -13.570312 24.425781 -12.253906 24.15625 -11.421875 C 23.894531 -10.597656 23.660156 -9.585938 23.453125 -8.390625 Z M 23.453125 -8.390625 "/></g></g></g><g fill="#5271ff" fill-opacity="1"><g transform="translate(168.078223, 120.299391)"><g><path d="M 1.390625 -57.59375 C 1.191406 -58.257812 1.257812 -58.925781 1.59375 -59.59375 C 1.925781 -60.257812 2.257812 -60.828125 2.59375 -61.296875 C 3.257812 -62.296875 4.09375 -63.128906 5.09375 -63.796875 C 5.351562 -64.054688 5.550781 -64.222656 5.6875 -64.296875 C 7.019531 -65.222656 8.429688 -65.914062 9.921875 -66.375 C 11.421875 -66.84375 12.9375 -66.878906 14.46875 -66.484375 C 15.800781 -66.148438 16.96875 -65.597656 17.96875 -64.828125 C 18.96875 -64.066406 19.703125 -63.019531 20.171875 -61.6875 C 20.367188 -61.15625 20.332031 -60.65625 20.0625 -60.1875 C 19.800781 -59.726562 19.46875 -59.332031 19.0625 -59 C 17.40625 -57.800781 15.644531 -57.003906 13.78125 -56.609375 C 13.175781 -55.941406 12.375 -55.457031 11.375 -55.15625 C 10.382812 -54.851562 9.421875 -54.703125 8.484375 -54.703125 C 7.679688 -54.703125 6.894531 -54.769531 6.125 -54.90625 C 5.363281 -55.039062 4.617188 -55.238281 3.890625 -55.5 C 3.421875 -55.632812 2.921875 -55.898438 2.390625 -56.296875 C 1.859375 -56.703125 1.523438 -57.132812 1.390625 -57.59375 Z M 8.09375 -55.203125 C 9.550781 -55.203125 10.515625 -55.351562 10.984375 -55.65625 C 11.453125 -55.957031 11.648438 -56.109375 11.578125 -56.109375 C 10.984375 -55.972656 10.316406 -55.867188 9.578125 -55.796875 C 8.847656 -55.734375 7.914062 -55.800781 6.78125 -56 C 5.320312 -56.332031 4.34375 -57 3.84375 -58 C 3.34375 -59 3.328125 -60.0625 3.796875 -61.1875 C 3.328125 -60.65625 2.894531 -60.023438 2.5 -59.296875 C 2.300781 -58.828125 2.203125 -58.410156 2.203125 -58.046875 C 2.203125 -57.679688 2.398438 -57.332031 2.796875 -57 C 3.460938 -56.46875 4.09375 -56.101562 4.6875 -55.90625 C 5.6875 -55.570312 6.820312 -55.335938 8.09375 -55.203125 Z M 18.46875 -5.296875 C 18 -4.492188 17.300781 -3.925781 16.375 -3.59375 C 16.4375 -3.257812 16.398438 -2.910156 16.265625 -2.546875 C 16.140625 -2.179688 15.84375 -1.898438 15.375 -1.703125 C 14.175781 -1.097656 12.894531 -0.925781 11.53125 -1.1875 C 10.164062 -1.457031 9.019531 -2.0625 8.09375 -3 L 7.890625 -3.296875 C 7.421875 -3.492188 6.921875 -3.789062 6.390625 -4.1875 C 5.328125 -5.1875 4.675781 -6.382812 4.4375 -7.78125 C 4.207031 -9.1875 3.992188 -10.585938 3.796875 -11.984375 C 3.328125 -15.703125 2.972656 -19.410156 2.734375 -23.109375 C 2.503906 -26.804688 2.425781 -30.515625 2.5 -34.234375 C 2.5 -36.035156 2.5 -37.847656 2.5 -39.671875 C 2.5 -41.503906 2.597656 -43.320312 2.796875 -45.125 C 2.929688 -46.050781 3.164062 -46.960938 3.5 -47.859375 C 3.832031 -48.765625 4.296875 -49.515625 4.890625 -50.109375 C 5.023438 -50.304688 5.15625 -50.488281 5.28125 -50.65625 C 5.414062 -50.820312 5.550781 -50.972656 5.6875 -51.109375 C 6.414062 -51.578125 7.363281 -52.160156 8.53125 -52.859375 C 9.695312 -53.554688 10.84375 -53.953125 11.96875 -54.046875 C 13.101562 -54.148438 13.9375 -53.535156 14.46875 -52.203125 C 14.800781 -52.273438 15.132812 -52.210938 15.46875 -52.015625 C 15.800781 -51.816406 16.003906 -51.484375 16.078125 -51.015625 C 16.078125 -49.148438 16.039062 -47.316406 15.96875 -45.515625 C 15.90625 -43.722656 15.875 -41.894531 15.875 -40.03125 C 15.875 -38.226562 15.90625 -36.410156 15.96875 -34.578125 C 16.039062 -32.753906 16.109375 -30.910156 16.171875 -29.046875 C 16.171875 -28.710938 16.1875 -28.328125 16.21875 -27.890625 C 16.25 -27.460938 16.300781 -27.015625 16.375 -26.546875 C 16.4375 -26.617188 16.515625 -26.351562 16.609375 -25.75 C 16.710938 -25.15625 16.796875 -24.570312 16.859375 -24 C 16.929688 -23.4375 17.003906 -23.15625 17.078125 -23.15625 C 17.003906 -25.550781 16.953125 -28.210938 16.921875 -31.140625 C 16.890625 -34.066406 16.890625 -36.992188 16.921875 -39.921875 C 16.953125 -42.859375 17.035156 -45.488281 17.171875 -47.8125 C 17.171875 -47.945312 17.285156 -48.03125 17.515625 -48.0625 C 17.753906 -48.101562 17.875 -48.085938 17.875 -48.015625 C 17.664062 -40.890625 17.757812 -33.785156 18.15625 -26.703125 C 18.5625 -19.617188 19.234375 -12.515625 20.171875 -5.390625 C 20.234375 -4.921875 20 -4.671875 19.46875 -4.640625 C 18.9375 -4.609375 18.601562 -4.828125 18.46875 -5.296875 Z M 7.390625 -46.015625 C 6.660156 -43.753906 6.242188 -41.375 6.140625 -38.875 C 6.035156 -36.382812 5.921875 -33.972656 5.796875 -31.640625 L 5.796875 -30.640625 C 5.796875 -30.578125 5.796875 -30.546875 5.796875 -30.546875 C 5.796875 -30.546875 5.796875 -30.515625 5.796875 -30.453125 C 5.921875 -29.253906 6.050781 -28.054688 6.1875 -26.859375 C 6.320312 -25.660156 6.457031 -24.460938 6.59375 -23.265625 L 6.890625 -23.265625 C 6.890625 -25.523438 6.867188 -27.769531 6.828125 -30 C 6.796875 -32.226562 6.816406 -34.472656 6.890625 -36.734375 C 6.890625 -38.460938 6.972656 -40.207031 7.140625 -41.96875 C 7.304688 -43.738281 7.65625 -45.421875 8.1875 -47.015625 L 8.09375 -47.015625 C 7.625 -46.679688 7.390625 -46.347656 7.390625 -46.015625 Z M 7.390625 -46.015625 "/></g></g></g><g fill="#5271ff" fill-opacity="1"><g transform="translate(184.648257, 120.299391)"><g><path d="M 45.515625 -54.109375 C 45.515625 -51.972656 45.398438 -49.859375 45.171875 -47.765625 C 44.941406 -45.671875 44.625 -43.554688 44.21875 -41.421875 C 43.820312 -39.429688 43.375 -37.40625 42.875 -35.34375 C 42.375 -33.28125 41.757812 -31.28125 41.03125 -29.34375 C 40.300781 -27.476562 39.519531 -25.597656 38.6875 -23.703125 C 37.851562 -21.804688 37.035156 -19.925781 36.234375 -18.0625 C 36.097656 -17.800781 36.03125 -17.632812 36.03125 -17.5625 C 35.832031 -17.238281 35.632812 -16.890625 35.4375 -16.515625 C 35.238281 -16.148438 35.070312 -15.800781 34.9375 -15.46875 C 34.070312 -13.9375 33.207031 -12.507812 32.34375 -11.1875 C 31.8125 -10.382812 30.929688 -9.300781 29.703125 -7.9375 C 28.472656 -6.570312 27.054688 -5.222656 25.453125 -3.890625 C 23.859375 -2.554688 22.257812 -1.488281 20.65625 -0.6875 C 19.0625 0.101562 17.597656 0.332031 16.265625 0 C 14.941406 -0.332031 13.910156 -1.5 13.171875 -3.5 C 12.972656 -4.03125 12.789062 -4.578125 12.625 -5.140625 C 12.457031 -5.703125 12.304688 -6.25 12.171875 -6.78125 C 10.710938 -7.320312 9.984375 -8.421875 9.984375 -10.078125 C 10.046875 -11.015625 10.0625 -11.976562 10.03125 -12.96875 C 10 -13.96875 9.914062 -14.96875 9.78125 -15.96875 C 9.78125 -16.164062 9.75 -16.300781 9.6875 -16.375 C 9.613281 -16.707031 9.578125 -17.003906 9.578125 -17.265625 C 9.578125 -17.535156 9.578125 -17.800781 9.578125 -18.0625 C 9.515625 -18.800781 9.429688 -19.5 9.328125 -20.15625 C 9.234375 -20.820312 9.148438 -21.488281 9.078125 -22.15625 C 8.617188 -25.957031 8.019531 -29.753906 7.28125 -33.546875 C 6.945312 -35.472656 6.597656 -37.398438 6.234375 -39.328125 C 5.867188 -41.265625 5.488281 -43.160156 5.09375 -45.015625 C 4.695312 -46.953125 4.265625 -48.867188 3.796875 -50.765625 C 3.328125 -52.660156 2.960938 -54.539062 2.703125 -56.40625 C 2.628906 -56.601562 2.691406 -56.734375 2.890625 -56.796875 C 3.085938 -56.867188 3.222656 -56.835938 3.296875 -56.703125 L 4.1875 -54.8125 C 3.925781 -55.601562 3.628906 -56.644531 3.296875 -57.9375 C 2.960938 -59.238281 2.796875 -60.539062 2.796875 -61.84375 C 2.796875 -63.144531 3.109375 -64.226562 3.734375 -65.09375 C 4.367188 -65.957031 5.453125 -66.320312 6.984375 -66.1875 C 9.453125 -65.988281 11.367188 -64.957031 12.734375 -63.09375 C 14.097656 -61.226562 15.078125 -59.234375 15.671875 -57.109375 C 16.398438 -54.441406 17.0625 -51.757812 17.65625 -49.0625 C 18.257812 -46.363281 18.796875 -43.648438 19.265625 -40.921875 C 19.460938 -39.992188 19.742188 -38.515625 20.109375 -36.484375 C 20.484375 -34.453125 20.867188 -32.285156 21.265625 -29.984375 C 21.660156 -27.691406 22.023438 -25.664062 22.359375 -23.90625 C 22.691406 -22.144531 22.890625 -21.097656 22.953125 -20.765625 C 24.085938 -23.753906 25.101562 -26.796875 26 -29.890625 C 26.90625 -32.992188 27.6875 -36.109375 28.34375 -39.234375 C 29.21875 -43.753906 29.851562 -48.328125 30.25 -52.953125 C 30.644531 -57.578125 30.773438 -62.1875 30.640625 -66.78125 C 30.640625 -67.445312 30.957031 -67.78125 31.59375 -67.78125 C 32.226562 -67.78125 32.578125 -67.445312 32.640625 -66.78125 C 32.972656 -58.59375 32.40625 -50.359375 30.9375 -42.078125 C 29.476562 -33.796875 26.984375 -25.894531 23.453125 -18.375 C 23.523438 -18.300781 23.578125 -18.128906 23.609375 -17.859375 C 23.640625 -17.597656 23.65625 -17.398438 23.65625 -17.265625 C 26.65625 -22.921875 28.882812 -28.507812 30.34375 -34.03125 C 31.8125 -39.5625 32.773438 -45.070312 33.234375 -50.5625 C 33.703125 -56.050781 33.90625 -61.554688 33.84375 -67.078125 C 36.101562 -67.546875 38.234375 -67.21875 40.234375 -66.09375 C 41.023438 -66.6875 41.851562 -66.617188 42.71875 -65.890625 C 43.457031 -65.222656 43.957031 -64.375 44.21875 -63.34375 C 44.488281 -62.3125 44.753906 -61.328125 45.015625 -60.390625 C 45.285156 -59.460938 45.453125 -58.429688 45.515625 -57.296875 C 45.585938 -56.171875 45.585938 -55.109375 45.515625 -54.109375 Z M 45.515625 -54.109375 "/></g></g></g><g fill="#5271ff" fill-opacity="1"><g transform="translate(227.272369, 120.299391)"><g><path d="M 1.390625 -57.59375 C 1.191406 -58.257812 1.257812 -58.925781 1.59375 -59.59375 C 1.925781 -60.257812 2.257812 -60.828125 2.59375 -61.296875 C 3.257812 -62.296875 4.09375 -63.128906 5.09375 -63.796875 C 5.351562 -64.054688 5.550781 -64.222656 5.6875 -64.296875 C 7.019531 -65.222656 8.429688 -65.914062 9.921875 -66.375 C 11.421875 -66.84375 12.9375 -66.878906 14.46875 -66.484375 C 15.800781 -66.148438 16.96875 -65.597656 17.96875 -64.828125 C 18.96875 -64.066406 19.703125 -63.019531 20.171875 -61.6875 C 20.367188 -61.15625 20.332031 -60.65625 20.0625 -60.1875 C 19.800781 -59.726562 19.46875 -59.332031 19.0625 -59 C 17.40625 -57.800781 15.644531 -57.003906 13.78125 -56.609375 C 13.175781 -55.941406 12.375 -55.457031 11.375 -55.15625 C 10.382812 -54.851562 9.421875 -54.703125 8.484375 -54.703125 C 7.679688 -54.703125 6.894531 -54.769531 6.125 -54.90625 C 5.363281 -55.039062 4.617188 -55.238281 3.890625 -55.5 C 3.421875 -55.632812 2.921875 -55.898438 2.390625 -56.296875 C 1.859375 -56.703125 1.523438 -57.132812 1.390625 -57.59375 Z M 8.09375 -55.203125 C 9.550781 -55.203125 10.515625 -55.351562 10.984375 -55.65625 C 11.453125 -55.957031 11.648438 -56.109375 11.578125 -56.109375 C 10.984375 -55.972656 10.316406 -55.867188 9.578125 -55.796875 C 8.847656 -55.734375 7.914062 -55.800781 6.78125 -56 C 5.320312 -56.332031 4.34375 -57 3.84375 -58 C 3.34375 -59 3.328125 -60.0625 3.796875 -61.1875 C 3.328125 -60.65625 2.894531 -60.023438 2.5 -59.296875 C 2.300781 -58.828125 2.203125 -58.410156 2.203125 -58.046875 C 2.203125 -57.679688 2.398438 -57.332031 2.796875 -57 C 3.460938 -56.46875 4.09375 -56.101562 4.6875 -55.90625 C 5.6875 -55.570312 6.820312 -55.335938 8.09375 -55.203125 Z M 18.46875 -5.296875 C 18 -4.492188 17.300781 -3.925781 16.375 -3.59375 C 16.4375 -3.257812 16.398438 -2.910156 16.265625 -2.546875 C 16.140625 -2.179688 15.84375 -1.898438 15.375 -1.703125 C 14.175781 -1.097656 12.894531 -0.925781 11.53125 -1.1875 C 10.164062 -1.457031 9.019531 -2.0625 8.09375 -3 L 7.890625 -3.296875 C 7.421875 -3.492188 6.921875 -3.789062 6.390625 -4.1875 C 5.328125 -5.1875 4.675781 -6.382812 4.4375 -7.78125 C 4.207031 -9.1875 3.992188 -10.585938 3.796875 -11.984375 C 3.328125 -15.703125 2.972656 -19.410156 2.734375 -23.109375 C 2.503906 -26.804688 2.425781 -30.515625 2.5 -34.234375 C 2.5 -36.035156 2.5 -37.847656 2.5 -39.671875 C 2.5 -41.503906 2.597656 -43.320312 2.796875 -45.125 C 2.929688 -46.050781 3.164062 -46.960938 3.5 -47.859375 C 3.832031 -48.765625 4.296875 -49.515625 4.890625 -50.109375 C 5.023438 -50.304688 5.15625 -50.488281 5.28125 -50.65625 C 5.414062 -50.820312 5.550781 -50.972656 5.6875 -51.109375 C 6.414062 -51.578125 7.363281 -52.160156 8.53125 -52.859375 C 9.695312 -53.554688 10.84375 -53.953125 11.96875 -54.046875 C 13.101562 -54.148438 13.9375 -53.535156 14.46875 -52.203125 C 14.800781 -52.273438 15.132812 -52.210938 15.46875 -52.015625 C 15.800781 -51.816406 16.003906 -51.484375 16.078125 -51.015625 C 16.078125 -49.148438 16.039062 -47.316406 15.96875 -45.515625 C 15.90625 -43.722656 15.875 -41.894531 15.875 -40.03125 C 15.875 -38.226562 15.90625 -36.410156 15.96875 -34.578125 C 16.039062 -32.753906 16.109375 -30.910156 16.171875 -29.046875 C 16.171875 -28.710938 16.1875 -28.328125 16.21875 -27.890625 C 16.25 -27.460938 16.300781 -27.015625 16.375 -26.546875 C 16.4375 -26.617188 16.515625 -26.351562 16.609375 -25.75 C 16.710938 -25.15625 16.796875 -24.570312 16.859375 -24 C 16.929688 -23.4375 17.003906 -23.15625 17.078125 -23.15625 C 17.003906 -25.550781 16.953125 -28.210938 16.921875 -31.140625 C 16.890625 -34.066406 16.890625 -36.992188 16.921875 -39.921875 C 16.953125 -42.859375 17.035156 -45.488281 17.171875 -47.8125 C 17.171875 -47.945312 17.285156 -48.03125 17.515625 -48.0625 C 17.753906 -48.101562 17.875 -48.085938 17.875 -48.015625 C 17.664062 -40.890625 17.757812 -33.785156 18.15625 -26.703125 C 18.5625 -19.617188 19.234375 -12.515625 20.171875 -5.390625 C 20.234375 -4.921875 20 -4.671875 19.46875 -4.640625 C 18.9375 -4.609375 18.601562 -4.828125 18.46875 -5.296875 Z M 7.390625 -46.015625 C 6.660156 -43.753906 6.242188 -41.375 6.140625 -38.875 C 6.035156 -36.382812 5.921875 -33.972656 5.796875 -31.640625 L 5.796875 -30.640625 C 5.796875 -30.578125 5.796875 -30.546875 5.796875 -30.546875 C 5.796875 -30.546875 5.796875 -30.515625 5.796875 -30.453125 C 5.921875 -29.253906 6.050781 -28.054688 6.1875 -26.859375 C 6.320312 -25.660156 6.457031 -24.460938 6.59375 -23.265625 L 6.890625 -23.265625 C 6.890625 -25.523438 6.867188 -27.769531 6.828125 -30 C 6.796875 -32.226562 6.816406 -34.472656 6.890625 -36.734375 C 6.890625 -38.460938 6.972656 -40.207031 7.140625 -41.96875 C 7.304688 -43.738281 7.65625 -45.421875 8.1875 -47.015625 L 8.09375 -47.015625 C 7.625 -46.679688 7.390625 -46.347656 7.390625 -46.015625 Z M 7.390625 -46.015625 "/></g></g></g><g fill="#5271ff" fill-opacity="1"><g transform="translate(243.84241, 120.299391)"><g><path d="M 36.53125 -3 C 36.132812 -3.125 35.6875 -3.816406 35.1875 -5.078125 C 34.6875 -6.347656 34.15625 -7.914062 33.59375 -9.78125 C 33.03125 -11.644531 32.5 -13.570312 32 -15.5625 C 31.5 -17.5625 31.046875 -19.359375 30.640625 -20.953125 C 30.242188 -22.554688 29.976562 -23.722656 29.84375 -24.453125 L 22.0625 -24.359375 C 21.332031 -21.359375 20.695312 -18.378906 20.15625 -15.421875 C 19.625 -12.460938 19.226562 -9.453125 18.96875 -6.390625 C 18.96875 -5.785156 18.679688 -5.484375 18.109375 -5.484375 C 17.546875 -5.484375 17.300781 -5.785156 17.375 -6.390625 C 17.632812 -9.378906 18.015625 -12.390625 18.515625 -15.421875 C 19.015625 -18.453125 19.734375 -21.429688 20.671875 -24.359375 L 19.765625 -24.359375 C 19.429688 -23.160156 19.097656 -21.710938 18.765625 -20.015625 C 18.429688 -18.316406 18.113281 -16.648438 17.8125 -15.015625 C 17.519531 -13.390625 17.269531 -12.023438 17.0625 -10.921875 C 16.863281 -9.828125 16.765625 -9.28125 16.765625 -9.28125 L 16.171875 -4.796875 C 15.972656 -2.523438 15.207031 -0.894531 13.875 0.09375 C 12.539062 1.09375 11.078125 1.492188 9.484375 1.296875 C 7.890625 1.097656 6.539062 0.332031 5.4375 -1 C 4.34375 -2.332031 3.960938 -4.160156 4.296875 -6.484375 C 4.691406 -9.410156 5.15625 -12.335938 5.6875 -15.265625 C 6.21875 -18.203125 6.851562 -21.097656 7.59375 -23.953125 C 7.125 -23.890625 6.65625 -23.84375 6.1875 -23.8125 C 5.71875 -23.78125 5.285156 -23.765625 4.890625 -23.765625 C 5.023438 -24.097656 5.054688 -24.394531 4.984375 -24.65625 C 3.390625 -25.050781 2.226562 -25.914062 1.5 -27.25 C 0.769531 -28.582031 0.566406 -30.0625 0.890625 -31.6875 C 1.222656 -33.320312 2.15625 -34.820312 3.6875 -36.1875 C 5.21875 -37.550781 7.484375 -38.46875 10.484375 -38.9375 C 11.210938 -42.257812 12.007812 -45.535156 12.875 -48.765625 C 13.738281 -51.992188 14.804688 -55.140625 16.078125 -58.203125 C 16.671875 -59.535156 17.332031 -60.984375 18.0625 -62.546875 C 18.800781 -64.109375 19.71875 -65.46875 20.8125 -66.625 C 21.914062 -67.789062 23.296875 -68.375 24.953125 -68.375 C 25.816406 -68.445312 26.679688 -68.21875 27.546875 -67.6875 C 28.410156 -67.15625 29.046875 -66.488281 29.453125 -65.6875 C 30.910156 -65.625 32.125 -65.109375 33.09375 -64.140625 C 34.0625 -63.171875 34.609375 -61.890625 34.734375 -60.296875 C 34.867188 -58.296875 35.035156 -56.28125 35.234375 -54.25 C 35.429688 -52.226562 35.632812 -50.25 35.84375 -48.3125 C 35.90625 -48.25 35.96875 -48.21875 36.03125 -48.21875 C 36.101562 -49.945312 36.1875 -51.660156 36.28125 -53.359375 C 36.382812 -55.054688 36.535156 -56.738281 36.734375 -58.40625 C 36.734375 -58.664062 36.78125 -58.0625 36.875 -56.59375 C 36.976562 -55.132812 37.097656 -53.253906 37.234375 -50.953125 C 37.367188 -48.660156 37.5 -46.363281 37.625 -44.0625 C 37.757812 -41.769531 37.929688 -39.859375 38.140625 -38.328125 C 40.066406 -38.128906 41.5625 -37.476562 42.625 -36.375 C 43.6875 -35.28125 44.347656 -34.019531 44.609375 -32.59375 C 44.878906 -31.164062 44.75 -29.75 44.21875 -28.34375 C 43.6875 -26.945312 42.722656 -25.816406 41.328125 -24.953125 C 41.992188 -22.023438 42.691406 -18.710938 43.421875 -15.015625 C 44.148438 -11.328125 44.71875 -7.984375 45.125 -4.984375 C 45.382812 -2.722656 45.195312 -1.015625 44.5625 0.140625 C 43.9375 1.304688 43.109375 1.957031 42.078125 2.09375 C 41.046875 2.226562 40.015625 1.863281 38.984375 1 C 37.953125 0.132812 37.132812 -1.195312 36.53125 -3 Z M 21.765625 -37.328125 C 22.492188 -37.460938 23.441406 -37.546875 24.609375 -37.578125 C 25.773438 -37.617188 26.691406 -37.671875 27.359375 -37.734375 C 27.222656 -38.597656 27.070312 -39.828125 26.90625 -41.421875 C 26.738281 -43.023438 26.535156 -44.738281 26.296875 -46.5625 C 26.066406 -48.394531 25.785156 -50.078125 25.453125 -51.609375 C 24.660156 -48.816406 23.960938 -46.320312 23.359375 -44.125 C 22.765625 -41.925781 22.234375 -39.660156 21.765625 -37.328125 Z M 21.765625 -37.328125 "/></g></g></g><g fill="#000000" fill-opacity="1"><g transform="translate(70.381842, 175.025357)"><g><path d="M 29.828125 1 C 25.984375 1 22.398438 0.359375 19.078125 -0.921875 C 15.753906 -2.203125 12.894531 -3.96875 10.5 -6.21875 C 8.101562 -8.476562 6.21875 -11.195312 4.84375 -14.375 C 3.46875 -17.550781 2.78125 -21.015625 2.78125 -24.765625 L 2.78125 -24.90625 C 2.78125 -28.507812 3.453125 -31.898438 4.796875 -35.078125 C 6.148438 -38.265625 8.015625 -41.007812 10.390625 -43.3125 C 12.765625 -45.613281 15.585938 -47.4375 18.859375 -48.78125 C 22.128906 -50.132812 25.6875 -50.8125 29.53125 -50.8125 C 33.894531 -50.8125 37.703125 -50.179688 40.953125 -48.921875 C 44.203125 -47.671875 47.132812 -45.90625 49.75 -43.625 L 41.640625 -33.8125 C 39.878906 -35.28125 38.050781 -36.425781 36.15625 -37.25 C 34.257812 -38.082031 32.078125 -38.5 29.609375 -38.5 C 27.804688 -38.5 26.132812 -38.144531 24.59375 -37.4375 C 23.050781 -36.726562 21.707031 -35.765625 20.5625 -34.546875 C 19.425781 -33.335938 18.523438 -31.898438 17.859375 -30.234375 C 17.203125 -28.578125 16.875 -26.800781 16.875 -24.90625 L 16.875 -24.765625 C 16.875 -20.734375 18.140625 -17.410156 20.671875 -14.796875 C 23.210938 -12.191406 26.453125 -10.890625 30.390625 -10.890625 C 32.097656 -10.890625 33.601562 -11.066406 34.90625 -11.421875 C 36.207031 -11.773438 37.359375 -12.285156 38.359375 -12.953125 L 38.359375 -19 L 28.609375 -19 L 28.609375 -29.109375 L 51.453125 -29.109375 L 51.453125 -6.765625 C 48.847656 -4.578125 45.726562 -2.734375 42.09375 -1.234375 C 38.46875 0.253906 34.378906 1 29.828125 1 Z M 29.828125 1 "/></g></g></g><g fill="#000000" fill-opacity="1"><g transform="translate(125.109993, 175.025357)"><g><path d="M 0.5 0 L 21.640625 -50.171875 L 34.953125 -50.171875 L 56.15625 0 L 41.34375 0 L 37.796875 -8.96875 L 18.5 -8.96875 L 14.953125 0 Z M 22.5625 -19.71875 L 33.734375 -19.71875 L 28.1875 -33.8125 Z M 22.5625 -19.71875 "/></g></g></g><g fill="#000000" fill-opacity="1"><g transform="translate(181.688505, 175.025357)"><g><path d="M 4.40625 0 L 4.40625 -49.8125 L 19 -49.8125 L 30.890625 -30.53125 L 42.78125 -49.8125 L 57.359375 -49.8125 L 57.359375 0 L 43.625 0 L 43.625 -28.609375 L 30.890625 -9.109375 L 30.609375 -9.109375 L 17.9375 -28.546875 L 17.9375 0 Z M 4.40625 0 "/></g></g></g><g fill="#000000" fill-opacity="1"><g transform="translate(243.462279, 175.025357)"><g><path d="M 4.40625 0 L 4.40625 -49.8125 L 44.484375 -49.8125 L 44.484375 -38.140625 L 18.078125 -38.140625 L 18.078125 -30.53125 L 41.984375 -30.53125 L 41.984375 -19.640625 L 18.078125 -19.640625 L 18.078125 -11.75 L 44.84375 -11.75 L 44.84375 0 Z M 4.40625 0 "/></g></g></g><g fill="#000000" fill-opacity="1"><g transform="translate(42.378822, 67.796208)"><g><path d="M 0.1875 -0.46875 L -5 -2.578125 L -4.1875 -4.5625 C -4 -5.03125 -3.765625 -5.414062 -3.484375 -5.71875 C -3.203125 -6.03125 -2.898438 -6.265625 -2.578125 -6.421875 C -2.253906 -6.585938 -1.910156 -6.671875 -1.546875 -6.671875 C -1.179688 -6.671875 -0.8125 -6.59375 -0.4375 -6.4375 L -0.421875 -6.4375 C -0.046875 -6.289062 0.273438 -6.082031 0.546875 -5.8125 C 0.816406 -5.550781 1.015625 -5.242188 1.140625 -4.890625 C 1.265625 -4.546875 1.316406 -4.164062 1.296875 -3.75 C 1.285156 -3.34375 1.179688 -2.90625 0.984375 -2.4375 Z M -2.90625 -4.078125 L -3.15625 -3.484375 L -0.5 -2.40625 L -0.25 -3 C -0.0703125 -3.425781 -0.046875 -3.816406 -0.171875 -4.171875 C -0.304688 -4.535156 -0.582031 -4.804688 -1 -4.984375 L -1.015625 -4.984375 C -1.429688 -5.148438 -1.804688 -5.144531 -2.140625 -4.96875 C -2.472656 -4.800781 -2.726562 -4.503906 -2.90625 -4.078125 Z M -2.90625 -4.078125 "/></g></g></g><g fill="#000000" fill-opacity="1"><g transform="translate(44.893565, 61.686271)"><g><path d="M 0.03125 -0.046875 L -3.703125 -4.90625 L -2.96875 -6.1875 L 3.125 -5.484375 L 2.296875 -4.03125 L 1.203125 -4.1875 L 0.140625 -2.3125 L 0.828125 -1.46875 Z M -0.671875 -3.296875 L -0.046875 -4.390625 L -1.734375 -4.625 Z M -0.671875 -3.296875 "/></g></g></g><g fill="#000000" fill-opacity="1"><g transform="translate(48.299799, 55.760202)"><g><path d="M 0.296875 -0.40625 L -4.15625 -3.78125 L -3.28125 -4.921875 L 0.453125 -4.984375 L -1.890625 -6.765625 L -0.96875 -7.984375 L 3.484375 -4.609375 L 2.671875 -3.53125 L -1.234375 -3.484375 L 1.21875 -1.625 Z M 0.296875 -0.40625 "/></g></g></g><g fill="#000000" fill-opacity="1"><g transform="translate(52.526077, 50.377884)"><g/></g></g><g fill="#000000" fill-opacity="1"><g transform="translate(54.377201, 48.278504)"><g><path d="M 0.375 -0.34375 L -3.40625 -4.46875 L -1.296875 -6.40625 C -1.035156 -6.632812 -0.785156 -6.800781 -0.546875 -6.90625 C -0.304688 -7.019531 -0.0703125 -7.070312 0.15625 -7.0625 C 0.320312 -7.050781 0.476562 -7.015625 0.625 -6.953125 C 0.769531 -6.890625 0.910156 -6.785156 1.046875 -6.640625 L 1.0625 -6.625 C 1.269531 -6.394531 1.378906 -6.148438 1.390625 -5.890625 C 1.410156 -5.628906 1.367188 -5.375 1.265625 -5.125 C 1.578125 -5.257812 1.878906 -5.316406 2.171875 -5.296875 C 2.460938 -5.285156 2.734375 -5.144531 2.984375 -4.875 L 3 -4.859375 C 3.320312 -4.503906 3.441406 -4.097656 3.359375 -3.640625 C 3.273438 -3.191406 2.988281 -2.742188 2.5 -2.296875 Z M 0.140625 -5.359375 L 0.125 -5.375 C 0.0195312 -5.488281 -0.101562 -5.535156 -0.25 -5.515625 C -0.394531 -5.503906 -0.550781 -5.421875 -0.71875 -5.265625 L -1.46875 -4.578125 L -0.796875 -3.84375 L -0.078125 -4.5 C 0.0976562 -4.664062 0.207031 -4.816406 0.25 -4.953125 C 0.289062 -5.097656 0.253906 -5.234375 0.140625 -5.359375 Z M 1.71875 -3.984375 C 1.625 -4.085938 1.492188 -4.132812 1.328125 -4.125 C 1.171875 -4.113281 0.992188 -4.019531 0.796875 -3.84375 L -0.0625 -3.046875 L 0.640625 -2.28125 L 1.515625 -3.09375 C 1.691406 -3.25 1.796875 -3.40625 1.828125 -3.5625 C 1.867188 -3.71875 1.835938 -3.851562 1.734375 -3.96875 Z M 1.71875 -3.984375 "/></g></g></g><g fill="#000000" fill-opacity="1"><g transform="translate(58.981227, 44.096159)"><g><path d="M 1.734375 -1.234375 L 0.515625 -2.9375 L -3.265625 -4.53125 L -1.828125 -5.5625 L 0.28125 -4.578125 L 0.046875 -6.90625 L 1.46875 -7.921875 L 1.75 -3.875 L 2.984375 -2.140625 Z M 1.734375 -1.234375 "/></g></g></g><g fill="#000000" fill-opacity="1"><g transform="translate(64.108434, 40.464333)"><g><path d="M 0.4375 -0.234375 L -2.25 -5.140625 L 0.0625 -6.40625 C 0.4375 -6.613281 0.78125 -6.742188 1.09375 -6.796875 C 1.414062 -6.859375 1.707031 -6.847656 1.96875 -6.765625 C 2.1875 -6.703125 2.382812 -6.597656 2.5625 -6.453125 C 2.738281 -6.304688 2.890625 -6.113281 3.015625 -5.875 L 3.03125 -5.859375 C 3.238281 -5.472656 3.316406 -5.101562 3.265625 -4.75 C 3.210938 -4.394531 3.070312 -4.070312 2.84375 -3.78125 L 4.953125 -2.703125 L 3.390625 -1.84375 L 1.59375 -2.8125 L 0.984375 -2.484375 L 1.796875 -0.984375 Z M 0.40625 -3.53125 L 1.3125 -4.015625 C 1.539062 -4.140625 1.6875 -4.289062 1.75 -4.46875 C 1.820312 -4.644531 1.804688 -4.828125 1.703125 -5.015625 L 1.703125 -5.03125 C 1.597656 -5.21875 1.453125 -5.328125 1.265625 -5.359375 C 1.078125 -5.390625 0.875 -5.34375 0.65625 -5.21875 L -0.25 -4.734375 Z M 0.40625 -3.53125 "/></g></g></g><g fill="#000000" fill-opacity="1"><g transform="translate(69.592519, 37.484184)"><g><path d="M 0.46875 -0.1875 L -1.578125 -5.390625 L -0.25 -5.90625 L 2.984375 -4.015625 L 1.90625 -6.765625 L 3.328125 -7.3125 L 5.375 -2.109375 L 4.125 -1.625 L 0.765625 -3.609375 L 1.890625 -0.75 Z M 0.46875 -0.1875 "/></g></g></g><g fill="#000000" fill-opacity="1"><g transform="translate(75.918763, 35.058023)"><g><path d="M 0.484375 -0.125 L -0.921875 -5.546875 L 3.4375 -6.671875 L 3.765625 -5.390625 L 0.890625 -4.65625 L 1.109375 -3.84375 L 3.703125 -4.515625 L 4.015625 -3.328125 L 1.421875 -2.65625 L 1.640625 -1.78125 L 4.5625 -2.53125 L 4.890625 -1.265625 Z M 0.484375 -0.125 "/></g></g></g></svg>