<svg xmlns="http://www.w3.org/2000/svg" xmlns:xlink="http://www.w3.org/1999/xlink" width="588" zoomAndPan="magnify" viewBox="0 0 440.88 272.999983" height="364" preserveAspectRatio="xMidYMid meet" version="1.0"><defs><g/></defs><g fill="#ffffff" fill-opacity="1"><g transform="translate(48.753219, 97.55602)"><g><path d="M 64.109375 -53.296875 C 67.035156 -53.296875 68.5 -52.097656 68.5 -49.703125 C 68.5 -48.953125 68.34375 -48.015625 68.03125 -46.890625 L 66.109375 -40.421875 C 65.515625 -38.441406 64.789062 -37.050781 63.9375 -36.25 C 63.09375 -35.445312 61.867188 -35.046875 60.265625 -35.046875 C 58.929688 -35.046875 57.90625 -35.394531 57.1875 -36.09375 C 56.46875 -36.789062 55.785156 -37.882812 55.140625 -39.375 L 53.78125 -42.65625 C 53.351562 -43.664062 52.898438 -44.359375 52.421875 -44.734375 C 51.941406 -45.109375 51.191406 -45.296875 50.171875 -45.296875 L 48.34375 -45.296875 L 38.171875 -9.53125 C 38.015625 -8.832031 37.9375 -8.21875 37.9375 -7.6875 C 37.9375 -7.039062 38.03125 -6.503906 38.21875 -6.078125 C 38.40625 -5.648438 38.6875 -5.195312 39.0625 -4.71875 C 39.539062 -3.96875 39.78125 -3.351562 39.78125 -2.875 C 39.78125 -2.769531 39.722656 -2.503906 39.609375 -2.078125 C 39.347656 -1.390625 38.828125 -0.882812 38.046875 -0.5625 C 37.273438 -0.238281 36.171875 -0.078125 34.734375 -0.078125 L 15.921875 -0.078125 C 14.804688 -0.078125 13.941406 -0.265625 13.328125 -0.640625 C 12.710938 -1.015625 12.40625 -1.546875 12.40625 -2.234375 C 12.40625 -2.554688 12.484375 -2.878906 12.640625 -3.203125 C 12.859375 -3.679688 13.113281 -4.039062 13.40625 -4.28125 C 13.695312 -4.519531 14.132812 -4.828125 14.71875 -5.203125 C 15.519531 -5.679688 16.1875 -6.210938 16.71875 -6.796875 C 17.257812 -7.390625 17.71875 -8.300781 18.09375 -9.53125 L 28.171875 -45.296875 L 26.328125 -45.296875 C 25.148438 -45.296875 24.1875 -45.109375 23.4375 -44.734375 C 22.695312 -44.359375 21.898438 -43.664062 21.046875 -42.65625 L 18.40625 -39.375 C 17.175781 -37.9375 15.988281 -36.851562 14.84375 -36.125 C 13.695312 -35.40625 12.457031 -35.046875 11.125 -35.046875 C 9.894531 -35.046875 8.929688 -35.363281 8.234375 -36 C 7.546875 -36.644531 7.203125 -37.53125 7.203125 -38.65625 C 7.203125 -39.1875 7.28125 -39.773438 7.4375 -40.421875 L 9.53125 -47.703125 C 9.945312 -49.191406 10.421875 -50.320312 10.953125 -51.09375 C 11.492188 -51.875 12.253906 -52.4375 13.234375 -52.78125 C 14.222656 -53.125 15.628906 -53.296875 17.453125 -53.296875 Z M 64.109375 -53.296875 "/></g></g></g><g fill="#ffffff" fill-opacity="1"><g transform="translate(109.486353, 97.55602)"><g><path d="M 61.140625 -37.046875 C 60.285156 -33.953125 58.6875 -31.535156 56.34375 -29.796875 C 54 -28.066406 51.035156 -26.992188 47.453125 -26.578125 C 50.015625 -26.359375 51.9375 -25.609375 53.21875 -24.328125 C 54.5 -23.046875 55.140625 -21.363281 55.140625 -19.28125 C 55.140625 -18.488281 55.003906 -17.503906 54.734375 -16.328125 L 53.859375 -12.40625 C 53.753906 -11.875 53.703125 -11.5 53.703125 -11.28125 C 53.703125 -10.59375 53.859375 -10.070312 54.171875 -9.71875 C 54.492188 -9.375 54.953125 -9.203125 55.546875 -9.203125 C 56.660156 -9.203125 57.472656 -9.039062 57.984375 -8.71875 C 58.492188 -8.40625 58.664062 -7.820312 58.5 -6.96875 C 58.289062 -5.738281 57.648438 -4.535156 56.578125 -3.359375 C 55.515625 -2.179688 54.007812 -1.207031 52.0625 -0.4375 C 50.113281 0.332031 47.753906 0.71875 44.984375 0.71875 C 41.460938 0.71875 38.660156 -0.0664062 36.578125 -1.640625 C 34.492188 -3.210938 33.453125 -5.46875 33.453125 -8.40625 C 33.453125 -9.519531 33.613281 -10.71875 33.9375 -12 L 35.21875 -17.125 C 35.425781 -17.820312 35.53125 -18.539062 35.53125 -19.28125 C 35.53125 -20.507812 35.113281 -21.390625 34.28125 -21.921875 C 33.457031 -22.460938 32.140625 -22.734375 30.328125 -22.734375 L 27.296875 -22.734375 L 23.609375 -9.4375 C 23.503906 -9.125 23.453125 -8.726562 23.453125 -8.25 C 23.453125 -7.5 23.632812 -6.851562 24 -6.3125 C 24.375 -5.78125 24.882812 -5.222656 25.53125 -4.640625 C 26.007812 -4.265625 26.378906 -3.90625 26.640625 -3.5625 C 26.910156 -3.21875 27.046875 -2.859375 27.046875 -2.484375 C 27.046875 -1.578125 26.617188 -0.9375 25.765625 -0.5625 C 24.910156 -0.1875 23.660156 0 22.015625 0 L 1.921875 0 C 0.535156 0 -0.5 -0.25 -1.1875 -0.75 C -1.882812 -1.257812 -2.128906 -1.96875 -1.921875 -2.875 C -1.816406 -3.351562 -1.613281 -3.738281 -1.3125 -4.03125 C -1.019531 -4.332031 -0.582031 -4.671875 0 -5.046875 C 0.90625 -5.578125 1.625 -6.132812 2.15625 -6.71875 C 2.695312 -7.3125 3.125 -8.21875 3.4375 -9.4375 L 13.203125 -43.9375 C 13.421875 -44.632812 13.53125 -45.300781 13.53125 -45.9375 C 13.53125 -46.519531 13.4375 -47.007812 13.25 -47.40625 C 13.0625 -47.8125 12.804688 -48.28125 12.484375 -48.8125 C 12.003906 -49.507812 11.765625 -50.070312 11.765625 -50.5 C 11.765625 -50.65625 11.816406 -50.945312 11.921875 -51.375 C 12.140625 -52.070312 12.609375 -52.566406 13.328125 -52.859375 C 14.046875 -53.148438 15.148438 -53.296875 16.640625 -53.296875 L 43.453125 -53.296875 C 47.140625 -53.296875 50.351562 -52.734375 53.09375 -51.609375 C 55.84375 -50.492188 57.953125 -48.960938 59.421875 -47.015625 C 60.890625 -45.066406 61.625 -42.867188 61.625 -40.421875 C 61.625 -39.296875 61.460938 -38.171875 61.140625 -37.046875 Z M 40.65625 -37.859375 C 40.925781 -39.085938 41.0625 -40.019531 41.0625 -40.65625 C 41.0625 -43.476562 39.515625 -44.890625 36.421875 -44.890625 L 33.046875 -44.890625 L 29.53125 -30.734375 L 32.890625 -30.734375 C 34.972656 -30.734375 36.613281 -31.238281 37.8125 -32.25 C 39.007812 -33.257812 39.957031 -35.128906 40.65625 -37.859375 Z M 40.65625 -37.859375 "/></g></g></g><g fill="#ffffff" fill-opacity="1"><g transform="translate(170.219488, 97.55602)"><g><path d="M 35.53125 -53.296875 C 36.65625 -53.296875 37.523438 -53.125 38.140625 -52.78125 C 38.753906 -52.4375 39.0625 -51.941406 39.0625 -51.296875 C 39.0625 -51.035156 38.976562 -50.691406 38.8125 -50.265625 C 38.65625 -49.890625 38.425781 -49.550781 38.125 -49.25 C 37.832031 -48.957031 37.566406 -48.742188 37.328125 -48.609375 C 37.085938 -48.484375 36.914062 -48.367188 36.8125 -48.265625 C 35.957031 -47.773438 35.265625 -47.238281 34.734375 -46.65625 C 34.203125 -46.070312 33.75 -45.164062 33.375 -43.9375 L 23.6875 -9.4375 C 23.476562 -8.75 23.375 -8.082031 23.375 -7.4375 C 23.375 -6.800781 23.460938 -6.269531 23.640625 -5.84375 C 23.828125 -5.414062 24.109375 -4.960938 24.484375 -4.484375 C 24.960938 -3.785156 25.203125 -3.222656 25.203125 -2.796875 C 25.203125 -2.691406 25.148438 -2.425781 25.046875 -2 C 24.835938 -1.25 24.359375 -0.726562 23.609375 -0.4375 C 22.859375 -0.144531 21.738281 0 20.25 0 L 1.4375 0 C 0.320312 0 -0.539062 -0.1875 -1.15625 -0.5625 C -1.769531 -0.9375 -2.078125 -1.441406 -2.078125 -2.078125 C -2.078125 -2.398438 -2 -2.75 -1.84375 -3.125 C -1.625 -3.707031 -1.273438 -4.160156 -0.796875 -4.484375 C -0.316406 -4.804688 -0.0234375 -4.992188 0.078125 -5.046875 C 0.929688 -5.578125 1.625 -6.117188 2.15625 -6.671875 C 2.695312 -7.234375 3.148438 -8.15625 3.515625 -9.4375 L 13.28125 -43.9375 C 13.5 -44.632812 13.609375 -45.300781 13.609375 -45.9375 C 13.609375 -46.519531 13.515625 -47.007812 13.328125 -47.40625 C 13.140625 -47.8125 12.882812 -48.28125 12.5625 -48.8125 C 12.082031 -49.507812 11.84375 -50.070312 11.84375 -50.5 C 11.84375 -50.65625 11.894531 -50.945312 12 -51.375 C 12.21875 -52.070312 12.6875 -52.566406 13.40625 -52.859375 C 14.125 -53.148438 15.226562 -53.296875 16.71875 -53.296875 Z M 35.53125 -53.296875 "/></g></g></g><g fill="#ffffff" fill-opacity="1"><g transform="translate(202.546473, 97.55602)"><g><path d="M 68.109375 -45.625 C 68.109375 -43.695312 67.691406 -42.039062 66.859375 -40.65625 C 66.035156 -39.269531 64.984375 -38.21875 63.703125 -37.5 C 62.421875 -36.78125 61.140625 -36.421875 59.859375 -36.421875 C 58.578125 -36.421875 57.414062 -36.6875 56.375 -37.21875 C 55.34375 -37.75 54.476562 -38.46875 53.78125 -39.375 L 34.5 -6.875 C 33.050781 -4.425781 31.710938 -2.664062 30.484375 -1.59375 C 29.265625 -0.53125 27.878906 0 26.328125 0 C 24.671875 0 23.347656 -0.546875 22.359375 -1.640625 C 21.378906 -2.734375 20.675781 -4.476562 20.25 -6.875 L 13.53125 -43.859375 C 13.363281 -44.816406 13.066406 -45.585938 12.640625 -46.171875 C 12.210938 -46.765625 11.65625 -47.40625 10.96875 -48.09375 C 10.425781 -48.570312 10.050781 -48.957031 9.84375 -49.25 C 9.632812 -49.550781 9.53125 -49.914062 9.53125 -50.34375 C 9.257812 -52.3125 10.429688 -53.296875 13.046875 -53.296875 L 33.046875 -53.296875 C 34.273438 -53.296875 35.207031 -53.039062 35.84375 -52.53125 C 36.488281 -52.03125 36.785156 -51.351562 36.734375 -50.5 C 36.734375 -50.019531 36.640625 -49.617188 36.453125 -49.296875 C 36.265625 -48.972656 35.957031 -48.570312 35.53125 -48.09375 C 35.050781 -47.5625 34.675781 -47.054688 34.40625 -46.578125 C 34.144531 -46.097656 34.015625 -45.507812 34.015625 -44.8125 C 34.015625 -44.5 34.039062 -44.234375 34.09375 -44.015625 L 37.140625 -25.375 L 47.78125 -44.25 C 49.644531 -47.664062 51.484375 -50.082031 53.296875 -51.5 C 55.109375 -52.914062 57.347656 -53.625 60.015625 -53.625 C 62.472656 -53.625 64.4375 -52.914062 65.90625 -51.5 C 67.375 -50.082031 68.109375 -48.125 68.109375 -45.625 Z M 68.109375 -45.625 "/></g></g></g><g fill="#ffffff" fill-opacity="1"><g transform="translate(261.199169, 97.55602)"><g><path d="M 35.53125 -53.296875 C 36.65625 -53.296875 37.523438 -53.125 38.140625 -52.78125 C 38.753906 -52.4375 39.0625 -51.941406 39.0625 -51.296875 C 39.0625 -51.035156 38.976562 -50.691406 38.8125 -50.265625 C 38.65625 -49.890625 38.425781 -49.550781 38.125 -49.25 C 37.832031 -48.957031 37.566406 -48.742188 37.328125 -48.609375 C 37.085938 -48.484375 36.914062 -48.367188 36.8125 -48.265625 C 35.957031 -47.773438 35.265625 -47.238281 34.734375 -46.65625 C 34.203125 -46.070312 33.75 -45.164062 33.375 -43.9375 L 23.6875 -9.4375 C 23.476562 -8.75 23.375 -8.082031 23.375 -7.4375 C 23.375 -6.800781 23.460938 -6.269531 23.640625 -5.84375 C 23.828125 -5.414062 24.109375 -4.960938 24.484375 -4.484375 C 24.960938 -3.785156 25.203125 -3.222656 25.203125 -2.796875 C 25.203125 -2.691406 25.148438 -2.425781 25.046875 -2 C 24.835938 -1.25 24.359375 -0.726562 23.609375 -0.4375 C 22.859375 -0.144531 21.738281 0 20.25 0 L 1.4375 0 C 0.320312 0 -0.539062 -0.1875 -1.15625 -0.5625 C -1.769531 -0.9375 -2.078125 -1.441406 -2.078125 -2.078125 C -2.078125 -2.398438 -2 -2.75 -1.84375 -3.125 C -1.625 -3.707031 -1.273438 -4.160156 -0.796875 -4.484375 C -0.316406 -4.804688 -0.0234375 -4.992188 0.078125 -5.046875 C 0.929688 -5.578125 1.625 -6.117188 2.15625 -6.671875 C 2.695312 -7.234375 3.148438 -8.15625 3.515625 -9.4375 L 13.28125 -43.9375 C 13.5 -44.632812 13.609375 -45.300781 13.609375 -45.9375 C 13.609375 -46.519531 13.515625 -47.007812 13.328125 -47.40625 C 13.140625 -47.8125 12.882812 -48.28125 12.5625 -48.8125 C 12.082031 -49.507812 11.84375 -50.070312 11.84375 -50.5 C 11.84375 -50.65625 11.894531 -50.945312 12 -51.375 C 12.21875 -52.070312 12.6875 -52.566406 13.40625 -52.859375 C 14.125 -53.148438 15.226562 -53.296875 16.71875 -53.296875 Z M 35.53125 -53.296875 "/></g></g></g><g fill="#ffffff" fill-opacity="1"><g transform="translate(293.526154, 97.55602)"><g><path d="M 48.90625 -9.4375 C 48.6875 -8.75 48.578125 -8.054688 48.578125 -7.359375 C 48.578125 -6.773438 48.65625 -6.28125 48.8125 -5.875 C 48.976562 -5.476562 49.15625 -5.160156 49.34375 -4.921875 C 49.53125 -4.679688 49.648438 -4.507812 49.703125 -4.40625 C 50.234375 -3.863281 50.5 -3.328125 50.5 -2.796875 C 50.5 -2.691406 50.445312 -2.425781 50.34375 -2 C 50.125 -1.25 49.65625 -0.726562 48.9375 -0.4375 C 48.21875 -0.144531 47.113281 0 45.625 0 L 26.65625 0 C 25.53125 0 24.660156 -0.1875 24.046875 -0.5625 C 23.429688 -0.9375 23.125 -1.441406 23.125 -2.078125 C 23.125 -2.398438 23.207031 -2.75 23.375 -3.125 C 23.53125 -3.550781 23.753906 -3.882812 24.046875 -4.125 C 24.335938 -4.363281 24.753906 -4.644531 25.296875 -4.96875 C 26.148438 -5.445312 26.84375 -5.976562 27.375 -6.5625 C 27.90625 -7.144531 28.359375 -8.101562 28.734375 -9.4375 L 30.8125 -16.328125 L 18.328125 -16.328125 L 16.171875 -11.765625 C 15.265625 -9.785156 14.8125 -8.238281 14.8125 -7.125 C 14.8125 -6.476562 14.914062 -5.957031 15.125 -5.5625 C 15.34375 -5.164062 15.664062 -4.753906 16.09375 -4.328125 C 16.457031 -3.898438 16.707031 -3.535156 16.84375 -3.234375 C 16.976562 -2.941406 16.992188 -2.554688 16.890625 -2.078125 C 16.671875 -1.273438 16.226562 -0.726562 15.5625 -0.4375 C 14.894531 -0.144531 13.84375 0 12.40625 0 L 0.484375 0 C -0.742188 0 -1.675781 -0.222656 -2.3125 -0.671875 C -2.957031 -1.128906 -3.28125 -1.734375 -3.28125 -2.484375 C -3.28125 -3.335938 -2.972656 -4.015625 -2.359375 -4.515625 C -1.742188 -5.023438 -0.820312 -5.570312 0.40625 -6.15625 C 2 -6.957031 3.273438 -7.742188 4.234375 -8.515625 C 5.203125 -9.296875 6.03125 -10.378906 6.71875 -11.765625 L 20.96875 -41.296875 C 23.15625 -45.878906 25.726562 -49.195312 28.6875 -51.25 C 31.65625 -53.3125 35.566406 -54.34375 40.421875 -54.34375 C 45.859375 -54.34375 50.070312 -53.234375 53.0625 -51.015625 C 56.050781 -48.804688 57.546875 -45.726562 57.546875 -41.78125 C 57.546875 -40.125 57.273438 -38.414062 56.734375 -36.65625 Z M 33.21875 -24.328125 L 37.453125 -38.421875 C 37.671875 -39.054688 37.78125 -39.722656 37.78125 -40.421875 C 37.78125 -41.429688 37.5 -42.1875 36.9375 -42.6875 C 36.375 -43.195312 35.585938 -43.453125 34.578125 -43.453125 C 33.296875 -43.453125 32.203125 -43.078125 31.296875 -42.328125 C 30.390625 -41.585938 29.484375 -40.253906 28.578125 -38.328125 L 22.015625 -24.328125 Z M 33.21875 -24.328125 "/></g></g></g><g fill="#ffffff" fill-opacity="1"><g transform="translate(57.211154, 183.368831)"><g><path d="M 3.125 0 L 3.125 -70.46875 L 17.640625 -70.46875 L 24.125 -36.75 L 24.125 -70.46875 L 37.734375 -70.46875 L 37.734375 0 L 23.953125 0 L 16.90625 -35.28125 L 16.90625 0 Z M 3.125 0 "/></g></g></g><g fill="#ffffff" fill-opacity="1"><g transform="translate(94.202002, 183.368831)"><g><path d="M 3.125 0 L 3.125 -70.46875 L 31.34375 -70.46875 L 31.34375 -56.84375 L 17.46875 -56.84375 L 17.46875 -43.15625 L 30.765625 -43.15625 L 30.765625 -29.859375 L 17.46875 -29.859375 L 17.46875 -13.703125 L 32.234375 -13.703125 L 32.234375 0 Z M 3.125 0 "/></g></g></g><g fill="#ffffff" fill-opacity="1"><g transform="translate(124.139064, 183.368831)"><g><path d="M 9.1875 0 L 9.1875 -56.9375 L 0.828125 -56.9375 L 0.828125 -70.46875 L 31.671875 -70.46875 L 31.671875 -56.9375 L 23.296875 -56.9375 L 23.296875 0 Z M 9.1875 0 "/></g></g></g><g fill="#ffffff" fill-opacity="1"><g transform="translate(152.763789, 183.368831)"><g/></g></g><g fill="#ffffff" fill-opacity="1"><g transform="translate(168.101157, 183.368831)"><g><path d="M 3.125 0 L 3.125 -70.46875 L 24.609375 -70.46875 L 30.515625 -27.484375 L 36.421875 -70.46875 L 58.078125 -70.46875 L 58.078125 0 L 45.203125 0 L 45.203125 -50.78125 L 37.078125 0 L 24.453125 0 L 15.828125 -50.78125 L 15.828125 0 Z M 3.125 0 "/></g></g></g><g fill="#ffffff" fill-opacity="1"><g transform="translate(225.43313, 183.368831)"><g><path d="M 1.234375 0 L 8.046875 -70.46875 L 31.90625 -70.46875 L 38.640625 0 L 25.265625 0 L 24.28125 -11.40625 L 15.75 -11.40625 L 14.9375 0 Z M 16.8125 -22.640625 L 23.21875 -22.640625 L 20.09375 -58.484375 L 19.4375 -58.484375 Z M 16.8125 -22.640625 "/></g></g></g><g fill="#ffffff" fill-opacity="1"><g transform="translate(305.44971, 181.776908)"><g><path d="M 1.8125 1.640625 L 49.125 -50.5625 L 59.21875 -41.40625 L 11.90625 10.796875 Z M 1.8125 1.640625 "/></g></g></g><g fill="#ffffff" fill-opacity="1"><g transform="translate(263.746156, 178.732279)"><g><path d="M 17.375 8.734375 C 12.113281 6.304688 8.890625 3.015625 7.703125 -1.140625 C 6.515625 -5.296875 7.273438 -10.300781 9.984375 -16.15625 L 31.59375 -63 L 44.046875 -57.265625 L 22.671875 -10.953125 C 21.734375 -8.910156 21.195312 -7.226562 21.0625 -5.90625 C 20.9375 -4.582031 21.519531 -3.625 22.8125 -3.03125 C 24.09375 -2.4375 25.1875 -2.609375 26.09375 -3.546875 C 27.007812 -4.484375 27.945312 -5.992188 28.90625 -8.078125 L 50.28125 -54.390625 L 62.734375 -48.640625 L 41.125 -1.796875 C 38.414062 4.054688 35.09375 7.878906 31.15625 9.671875 C 27.21875 11.472656 22.625 11.160156 17.375 8.734375 Z M 17.375 8.734375 "/></g></g></g></svg>